<svg width="9" height="9" viewBox="0 0 9 9" fill="none" xmlns="http://www.w3.org/2000/svg">
<path d="M5.77223 4.5L8.73628 1.53708C8.81989 1.45347 8.88621 1.35421 8.93146 1.24497C8.97671 1.13573 9 1.01864 9 0.9004C9 0.782158 8.97671 0.665074 8.93146 0.555832C8.88621 0.44659 8.81989 0.34733 8.73628 0.263721C8.65267 0.180111 8.55341 0.113788 8.44417 0.0685384C8.33493 0.023289 8.21784 0 8.0996 0C7.98136 0 7.86427 0.023289 7.75503 0.0685384C7.64579 0.113788 7.54653 0.180111 7.46292 0.263721L4.5 3.22777L1.53708 0.263721C1.36822 0.0948628 1.1392 0 0.9004 0C0.661599 0 0.432578 0.0948628 0.263721 0.263721C0.0948628 0.432578 0 0.661599 0 0.9004C0 1.1392 0.0948628 1.36822 0.263721 1.53708L3.22777 4.5L0.263721 7.46292C0.180111 7.54653 0.113788 7.64579 0.0685384 7.75503C0.023289 7.86427 0 7.98136 0 8.0996C0 8.21784 0.023289 8.33493 0.0685384 8.44417C0.113788 8.55341 0.180111 8.65267 0.263721 8.73628C0.347331 8.81989 0.44659 8.88621 0.555832 8.93146C0.665074 8.97671 0.782158 9 0.9004 9C1.01864 9 1.13573 8.97671 1.24497 8.93146C1.35421 8.88621 1.45347 8.81989 1.53708 8.73628L4.5 5.77223L7.46292 8.73628C7.54653 8.81989 7.64579 8.88621 7.75503 8.93146C7.86427 8.97671 7.98136 9 8.0996 9C8.21784 9 8.33493 8.97671 8.44417 8.93146C8.55341 8.88621 8.65267 8.81989 8.73628 8.73628C8.81989 8.65267 8.88621 8.55341 8.93146 8.44417C8.97671 8.33493 9 8.21784 9 8.0996C9 7.98136 8.97671 7.86427 8.93146 7.75503C8.88621 7.64579 8.81989 7.54653 8.73628 7.46292L5.77223 4.5Z" fill="#777777"/>
</svg>
