<svg width="75" height="75" viewBox="0 0 75 75" fill="none" xmlns="http://www.w3.org/2000/svg">
<circle cx="37.5" cy="37.5" r="37.5" fill="#FB7800"/>
<path fill-rule="evenodd" clip-rule="evenodd" d="M37.1852 44.1796L37.1852 28.8148C37.1852 28.3648 37.55 28 38 28C38.45 28 38.8148 28.3648 38.8148 28.8148L38.8148 44.1796L42.6091 40.3326C42.9273 40.01 43.4432 40.01 43.7614 40.3326C44.0795 40.6552 44.0795 41.1783 43.7614 41.5009L38.5761 46.758C38.2579 47.0807 37.7421 47.0807 37.4239 46.758L32.2386 41.5009C31.9205 41.1783 31.9205 40.6552 32.2386 40.3326C32.5568 40.01 33.0727 40.01 33.3909 40.3326L37.1852 44.1796Z" fill="white"/>
</svg>
