<svg width="52" height="52" viewBox="0 0 52 52" fill="none" xmlns="http://www.w3.org/2000/svg">
<path d="M6.59199 2.35066C6.67223 2.37237 6.75597 2.37804 6.83841 2.36735C6.92085 2.35665 7.00037 2.3298 7.07242 2.28833C7.14446 2.24686 7.20762 2.19159 7.25827 2.12567C7.30893 2.05976 7.34608 1.9845 7.36761 1.90421L7.6509 0.852157C7.69321 0.690538 7.66989 0.518744 7.58603 0.37425C7.50217 0.229755 7.36457 0.124286 7.20325 0.0808479C7.04193 0.0374096 6.86998 0.0595271 6.7249 0.142376C6.57982 0.225225 6.4734 0.362082 6.42883 0.523095L6.14554 1.57504C6.10189 1.7371 6.12441 1.90985 6.20813 2.05531C6.29186 2.20077 6.42994 2.30701 6.59199 2.35066ZM6.37188 3.1672C6.20982 3.12355 6.03706 3.14606 5.89161 3.22979C5.74615 3.31351 5.63991 3.45159 5.59626 3.61365L5.31287 4.66559C5.29103 4.7459 5.28526 4.82973 5.29587 4.91228C5.30648 4.99483 5.33327 5.07447 5.3747 5.14665C5.41613 5.21883 5.4714 5.28213 5.53733 5.33292C5.60326 5.38371 5.67857 5.421 5.75893 5.44264C5.83929 5.46429 5.92314 5.46987 6.00566 5.45906C6.08818 5.44826 6.16776 5.42129 6.23984 5.37968C6.31193 5.33808 6.37509 5.28266 6.42573 5.21661C6.47637 5.15056 6.51348 5.07517 6.53493 4.99476L6.81833 3.94281C6.86198 3.78076 6.83946 3.608 6.75574 3.46254C6.67201 3.31709 6.53393 3.21085 6.37188 3.1672ZM6.88868 2.86883C6.86701 2.94905 6.86135 3.03276 6.87203 3.11518C6.88271 3.19759 6.90953 3.27709 6.95093 3.34915C6.99234 3.4212 7.04753 3.48439 7.11336 3.53511C7.17919 3.58583 7.25437 3.62309 7.3346 3.64476L8.38517 3.92858C8.5472 3.97234 8.71998 3.94994 8.86549 3.86632C9.01101 3.78269 9.11734 3.64468 9.16111 3.48265C9.20487 3.32063 9.18247 3.14785 9.09884 3.00233C9.01522 2.85682 8.87721 2.75048 8.71518 2.70672L7.66493 2.4229C7.58468 2.40119 7.50093 2.3955 7.41848 2.40615C7.33603 2.41681 7.25649 2.44361 7.18441 2.48503C7.11232 2.52644 7.0491 2.58165 6.99835 2.6475C6.94761 2.71336 6.91034 2.78856 6.88868 2.86883ZM4.24858 2.81124L5.29916 3.09495C5.46088 3.13778 5.63299 3.11482 5.77783 3.03109C5.92267 2.94737 6.02847 2.80969 6.07208 2.64818C6.11569 2.48666 6.09356 2.31445 6.01054 2.1692C5.92752 2.02395 5.79036 1.91749 5.62906 1.87309L4.57891 1.58938C4.41688 1.54562 4.24411 1.56802 4.09859 1.65164C3.95307 1.73527 3.84674 1.87328 3.80298 2.03531C3.75921 2.19733 3.78161 2.37011 3.86524 2.51563C3.94886 2.66114 4.08687 2.76748 4.2489 2.81124H4.24858ZM33.3202 36.7579C33.24 36.7361 33.1563 36.7303 33.0739 36.7409C32.9914 36.7514 32.9119 36.7781 32.8398 36.8194C32.7676 36.8607 32.7044 36.9158 32.6535 36.9815C32.6027 37.0473 32.5653 37.1224 32.5435 37.2026L32.2819 38.1659C32.2594 38.2463 32.2532 38.3304 32.2634 38.4132C32.2735 38.496 32.3 38.576 32.3413 38.6486C32.3825 38.7211 32.4377 38.7848 32.5036 38.8359C32.5696 38.8871 32.645 38.9247 32.7255 38.9466C32.8061 38.9684 32.8901 38.9742 32.9729 38.9634C33.0556 38.9527 33.1355 38.9257 33.2077 38.884C33.28 38.8423 33.3433 38.7867 33.394 38.7204C33.4447 38.6541 33.4818 38.5784 33.5032 38.4978L33.765 37.5345C33.809 37.3725 33.7868 37.1997 33.7034 37.0541C33.62 36.9085 33.4822 36.8019 33.3202 36.7579ZM32.5513 39.5877C32.3894 39.5437 32.2166 39.5658 32.0709 39.6492C31.9253 39.7326 31.8188 39.8705 31.7748 40.0324L31.5131 40.9958C31.4907 41.0762 31.4844 41.1602 31.4946 41.243C31.5048 41.3259 31.5313 41.4058 31.5725 41.4784C31.6137 41.551 31.6689 41.6146 31.7349 41.6658C31.8008 41.7169 31.8762 41.7545 31.9568 41.7764C32.0373 41.7983 32.1214 41.804 32.2041 41.7933C32.2869 41.7825 32.3667 41.7555 32.439 41.7138C32.5113 41.6721 32.5746 41.6165 32.6253 41.5502C32.676 41.4839 32.7131 41.4083 32.7344 41.3276L32.9961 40.3642C33.0401 40.2023 33.0179 40.0295 32.9345 39.8838C32.8511 39.7382 32.7133 39.6317 32.5513 39.5877ZM33.4154 40.128L34.3857 40.3879C34.5472 40.4292 34.7185 40.4053 34.8624 40.3211C35.0063 40.2369 35.1111 40.0994 35.1542 39.9383C35.1973 39.7773 35.1751 39.6058 35.0924 39.461C35.0097 39.3163 34.8733 39.21 34.7127 39.1653L33.7424 38.9054C33.6618 38.8829 33.5776 38.8767 33.4945 38.887C33.4115 38.8973 33.3314 38.924 33.2587 38.9655C33.1861 39.007 33.1224 39.0624 33.0713 39.1287C33.0203 39.195 32.9828 39.2707 32.9612 39.3515C32.9396 39.4323 32.9342 39.5166 32.9454 39.5995C32.9566 39.6824 32.9841 39.7623 33.0263 39.8345C33.0686 39.9067 33.1247 39.9698 33.1915 40.0202C33.2583 40.0706 33.3344 40.1072 33.4154 40.128ZM31.8625 38.4019L30.8922 38.1421C30.8116 38.1197 30.7274 38.1134 30.6444 38.1237C30.5613 38.134 30.4812 38.1607 30.4086 38.2022C30.3359 38.2437 30.2722 38.2992 30.2211 38.3654C30.1701 38.4317 30.1327 38.5074 30.111 38.5882C30.0894 38.669 30.0841 38.7533 30.0952 38.8362C30.1064 38.9192 30.1339 38.999 30.1761 39.0712C30.2184 39.1434 30.2745 39.2066 30.3413 39.2569C30.4081 39.3073 30.4842 39.3439 30.5652 39.3647L31.5356 39.6245C31.697 39.6659 31.8683 39.6419 32.0122 39.5577C32.1561 39.4735 32.261 39.336 32.304 39.175C32.3471 39.0139 32.3249 38.8424 32.2422 38.6977C32.1595 38.5529 32.0231 38.4466 31.8625 38.4019ZM49.9388 23.0237C50.0844 22.9572 50.2011 22.8403 50.2674 22.6946C50.3338 22.5489 50.3452 22.3841 50.2998 22.2306C50.2543 22.0771 50.155 21.9452 50.02 21.8591C49.885 21.773 49.7235 21.7386 49.5651 21.7621C46.5988 22.198 45.5959 20.24 45.1137 19.2986C45.0343 19.1469 44.9033 19.0285 44.7442 18.965C44.5852 18.9015 44.4086 18.897 44.2465 18.9523C44.0924 19.0037 43.9605 19.1065 43.8731 19.2435C43.7856 19.3805 43.7479 19.5434 43.7661 19.7049C43.8972 20.8816 43.7805 23.0236 41.5264 24.1486C41.3864 24.2182 41.2754 24.335 41.213 24.4783C41.1506 24.6217 41.1407 24.7824 41.1851 24.9323C41.2295 25.0822 41.3254 25.2117 41.4558 25.2979C41.5862 25.3841 41.7429 25.4216 41.8982 25.4037C44.4005 25.1176 45.652 26.8374 46.1747 27.888C46.2332 28.0064 46.3237 28.106 46.4359 28.1756C46.5481 28.2452 46.6775 28.282 46.8095 28.2817C46.87 28.2817 46.9302 28.2742 46.9888 28.2594C47.1555 28.2189 47.3018 28.1196 47.4008 27.9796C47.4999 27.8396 47.5449 27.6686 47.5276 27.498C47.4232 26.4528 47.2065 24.2775 49.9388 23.0237ZM46.2667 25.803C45.5575 25.0076 44.6166 24.4549 43.5766 24.2227C44.3247 23.4553 44.814 22.4731 44.976 21.4137C45.6709 22.2432 46.6336 22.8041 47.6979 22.9996C46.9096 23.7394 46.4035 24.7306 46.2667 25.803ZM1.65416 29.5099C2.21319 29.3318 2.81526 29.3424 3.36771 29.54C2.59905 35.3049 4.50529 39.5441 5.09971 40.6945C3.65119 43.596 2.36151 46.5741 1.23639 49.6156C1.10993 49.9609 1.12403 50.3421 1.27566 50.6771C1.42729 51.0121 1.70434 51.2743 2.04723 51.4072C2.39013 51.5401 2.77147 51.5331 3.10927 51.3877C3.44707 51.2424 3.71434 50.9703 3.8536 50.6299C4.21135 49.7566 5.57738 46.5252 7.88356 42.2512C8.8442 42.4469 9.8227 42.5415 10.803 42.5334C13.1501 42.5334 16.5501 42.0483 20.5324 40.0309C20.6727 39.9598 20.785 39.8435 20.8513 39.7008C20.9175 39.5582 20.9339 39.3974 20.8978 39.2442C20.8617 39.0911 20.7752 38.9546 20.6522 38.8566C20.5291 38.7586 20.3767 38.7047 20.2194 38.7037C19.9195 38.7023 19.4156 38.5065 18.86 38.1354C21.8181 37.7567 28.0819 36.194 31.8396 29.7688C31.9228 29.6267 31.9593 29.4621 31.944 29.2981C31.9288 29.1342 31.8626 28.9791 31.7547 28.8547C31.6468 28.7303 31.5026 28.6429 31.3425 28.6046C31.1823 28.5664 31.0142 28.5793 30.8617 28.6415C30.4926 28.783 28.5064 29.0097 26.8233 28.7852C29.9129 28.0325 35.874 26.3145 38.9799 21.1162C39.0474 21.003 39.081 20.8728 39.0769 20.7411C39.0727 20.6093 39.0309 20.4815 38.9564 20.3728C38.8819 20.2641 38.7778 20.179 38.6565 20.1275C38.5351 20.0761 38.4016 20.0605 38.2716 20.0826C37.44 20.2252 36.3338 20.3227 35.5136 20.2216C36.5731 18.2781 38.9001 15.4907 41.7198 12.7993C41.9526 13.1904 42.1074 13.6228 42.1758 14.0727C42.2006 14.2287 42.2783 14.3715 42.396 14.4769C42.5137 14.5824 42.6641 14.6441 42.8219 14.6517C42.8345 14.6523 42.8471 14.6527 42.8596 14.6527C43.0187 14.6524 43.1728 14.5975 43.2963 14.4973C43.4199 14.3972 43.5054 14.2577 43.5386 14.1022C43.7707 12.9737 44.2322 11.8967 46.021 11.6676H46.0222C46.1789 11.6475 46.323 11.5716 46.4281 11.4538C46.5333 11.336 46.5924 11.1842 46.5946 11.0263C46.5968 10.8684 46.5419 10.715 46.4401 10.5943C46.3382 10.4736 46.1963 10.3937 46.0403 10.3693C45.6438 10.3147 45.2606 10.1888 44.909 9.99767C47.2631 8.11611 49.2762 6.93496 50.3706 6.80608C50.5736 6.7811 50.7626 6.68977 50.9083 6.5463C51.0541 6.40282 51.1483 6.21523 51.1765 6.01267C51.2046 5.81011 51.1651 5.60392 51.064 5.42614C50.9629 5.24836 50.806 5.10895 50.6175 5.02956C39.4401 0.333884 31.1254 4.44959 28.137 6.37777C28.2358 5.97875 28.3796 5.59225 28.5657 5.22574C28.6314 5.09782 28.66 4.95404 28.6482 4.8107C28.6364 4.66736 28.5847 4.53018 28.499 4.41472C28.4132 4.29926 28.2969 4.21012 28.163 4.15742C28.0292 4.10471 27.8833 4.09055 27.7418 4.11652C21.9157 5.18713 17.5076 7.61408 14.6401 11.3306C12.2776 14.3915 11.5365 17.53 11.0934 19.4054C11.0741 19.487 11.0544 19.5703 11.0345 19.6533C10.9777 19.1423 10.9732 18.3752 11.0997 17.3014C11.1208 17.1222 11.0842 16.941 10.9951 16.784C10.9061 16.6271 10.7693 16.5027 10.6047 16.4289C10.44 16.355 10.2562 16.3357 10.0798 16.3736C9.90336 16.4115 9.74366 16.5047 9.6239 16.6397C7.15667 19.4195 5.37203 22.3923 4.3107 25.4854C3.91237 25.2182 3.5673 24.8791 3.29314 24.4855C3.19263 24.3533 3.04807 24.2614 2.88566 24.2266C2.72325 24.1917 2.55373 24.2162 2.40784 24.2956C2.26929 24.3702 2.16051 24.4901 2.09965 24.6352C2.03878 24.7803 2.02952 24.9419 2.07339 25.093C2.29846 25.8735 2.4689 27.334 1.08199 28.352C0.957423 28.4431 0.869001 28.5753 0.832292 28.7252C0.795582 28.8751 0.812938 29.0331 0.881305 29.1715C0.949671 29.3099 1.06466 29.4197 1.20604 29.4816C1.34741 29.5435 1.5061 29.5535 1.65416 29.5099ZM2.68237 50.1502C2.67001 50.1805 2.64704 50.2054 2.61772 50.2202C2.59336 50.2344 2.56499 50.2402 2.537 50.2366C2.50902 50.2331 2.483 50.2203 2.463 50.2005C2.44085 50.1833 2.42508 50.1593 2.41818 50.1321C2.41128 50.105 2.41365 50.0763 2.42492 50.0507C4.6365 44.0113 12.7462 24.5341 27.8664 16.0129C12.5455 26.8772 3.68844 47.6944 2.68237 50.1503V50.1502ZM42.8671 12.2529C42.5789 11.7335 42.1734 11.2885 41.6828 10.9535C42.1848 10.6305 42.6045 10.1948 42.9086 9.68105C43.1914 10.2117 43.6044 10.6617 44.1089 10.9889C43.5947 11.2983 43.1674 11.7332 42.8671 12.2529ZM6.04798 30.1005C5.74149 28.9891 5.66323 27.82 7.15224 26.8005C7.28278 26.7115 7.37678 26.5783 7.41692 26.4255C7.45707 26.2727 7.44067 26.1105 7.37074 25.9688C7.30081 25.8271 7.18205 25.7154 7.03633 25.6543C6.89061 25.5932 6.72772 25.5868 6.57765 25.6363C6.24131 25.752 5.8891 25.815 5.53351 25.8232C6.41944 23.2739 7.82714 20.8046 9.73528 18.4614C9.66282 20.3318 10.0363 21.3829 10.8662 21.6609C10.9692 21.6962 11.0786 21.7094 11.187 21.6995C11.2955 21.6897 11.4007 21.6571 11.4957 21.6039C11.931 21.3613 12.0546 20.84 12.3245 19.6966C13.1512 16.198 15.0604 8.11779 27.0643 5.54267C26.8663 6.12997 26.7481 6.74122 26.7129 7.36C26.7047 7.51001 26.7395 7.65925 26.8133 7.79011C26.8871 7.92097 26.9968 8.028 27.1294 8.09858C27.2621 8.16916 27.4121 8.20035 27.5619 8.18846C27.7116 8.17658 27.8549 8.12213 27.9747 8.03152C29.5134 6.86641 37.6069 1.42106 49.1802 5.819C47.5022 6.44126 45.4408 7.94683 44.0219 9.08674C43.8284 8.69676 43.6982 8.27843 43.6364 7.84748C43.6079 7.68845 43.5247 7.54437 43.4013 7.44013C43.2779 7.33588 43.1219 7.27801 42.9604 7.27651C42.7988 7.27501 42.6418 7.32997 42.5165 7.43191C42.3911 7.53384 42.3053 7.67635 42.2739 7.83482C42.1197 8.63185 41.6077 10.01 39.9106 10.2841C39.7583 10.3087 39.6195 10.3861 39.5187 10.5028C39.4178 10.6196 39.3614 10.7681 39.3592 10.9224C39.3571 11.0766 39.4094 11.2267 39.507 11.3462C39.6046 11.4657 39.7411 11.5469 39.8927 11.5757C40.2175 11.6348 40.5299 11.7487 40.8166 11.9125C38.1596 14.4553 35.1318 17.8583 34.0442 20.3394C34.0067 20.4249 33.9869 20.5172 33.986 20.6107C33.9852 20.7041 34.0034 20.7967 34.0394 20.8829C34.0755 20.9691 34.1286 21.047 34.1957 21.1121C34.2628 21.1771 34.3424 21.2278 34.4297 21.2611C35.2191 21.5621 36.3088 21.5655 37.2067 21.4924C34.0012 25.7871 28.594 27.0674 25.8971 27.7061C25.3923 27.8256 24.9938 27.92 24.7128 28.0119C24.5665 28.0597 24.4376 28.1496 24.3421 28.2703C24.2467 28.391 24.189 28.5372 24.1762 28.6905C24.1635 28.8439 24.1962 28.9976 24.2704 29.1324C24.3446 29.2672 24.4569 29.3771 24.5933 29.4484C26.0985 30.2384 28.6463 30.2183 30.1739 30.0405C28.4182 32.6338 26.0046 34.5555 22.9858 35.7606C21.2205 36.4724 19.3495 36.8869 17.4487 36.9874C17.31 36.9921 17.1757 37.0371 17.0622 37.1169C16.9487 37.1968 16.861 37.3079 16.8097 37.4369C16.7584 37.5658 16.7459 37.7069 16.7735 37.8429C16.8012 37.9789 16.868 38.1038 16.9656 38.2024C17.4704 38.7185 18.0482 39.1577 18.6807 39.5057C13.8583 41.6072 10.0839 41.3382 8.52492 41.0805C13.0525 32.9362 20.7088 21.6943 31.0785 15.4164C31.3161 15.2722 31.4898 15.0429 31.5642 14.7751C31.6387 14.5073 31.6084 14.2212 31.4793 13.975C31.3503 13.7289 31.1323 13.5411 30.8698 13.45C30.6072 13.3588 30.3198 13.3712 30.066 13.4845C18.4453 18.7026 10.5147 30.2505 5.83314 39.2524C4.68965 36.4362 4.24834 33.3841 4.54727 30.3594C4.64475 30.4657 4.7363 30.5774 4.82149 30.6938C4.88491 30.7813 4.96818 30.8526 5.06447 30.9017C5.16075 30.9509 5.26731 30.9765 5.37541 30.9765C5.48219 30.9765 5.58755 30.952 5.68334 30.9049C5.77914 30.8577 5.8628 30.7891 5.92785 30.7044C5.9929 30.6197 6.03759 30.5212 6.05848 30.4165C6.07937 30.3118 6.07588 30.2037 6.0483 30.1005H6.04798ZM3.47803 26.4497C3.9709 26.7931 4.54306 27.0055 5.14064 27.0667C4.82305 27.5768 4.64028 28.1592 4.6095 28.7593C4.117 28.4282 3.55393 28.2169 2.96524 28.1421C3.2654 27.6255 3.44098 27.046 3.47803 26.4497Z" fill="#FB7800"/>
</svg>
