<svg width="48" height="48" viewBox="0 0 48 48" fill="none" xmlns="http://www.w3.org/2000/svg">
<g clip-path="url(#clip0_100_1387)">
<path d="M37.0077 9.21882L33.1164 13.11L31.3973 11.3909C30.9761 10.9696 30.4161 10.7377 29.8204 10.7377C29.2247 10.7377 28.6648 10.9697 28.2438 11.3908C27.8226 11.812 27.5905 12.372 27.5905 12.9676C27.5905 13.5632 27.8226 14.1232 28.2437 14.5444L31.1794 17.48C31.6966 17.9976 32.3846 18.2828 33.1165 18.2828C33.8482 18.2828 34.536 17.9978 35.0532 17.4805L40.1613 12.3724C40.5825 11.9512 40.8145 11.3912 40.8145 10.7956C40.8153 10.5027 40.758 10.2125 40.6459 9.94182C40.5338 9.67118 40.3691 9.42546 40.1614 9.21891C39.7403 8.79771 39.1802 8.56573 38.5846 8.56573C37.989 8.56573 37.4288 8.79771 37.0077 9.21882ZM39.4079 10.7957C39.4082 10.9039 39.3871 11.011 39.3456 11.111C39.3042 11.2109 39.2434 11.3016 39.1667 11.3779L34.0585 16.4861C33.9351 16.6102 33.7883 16.7086 33.6266 16.7756C33.4648 16.8426 33.2914 16.8769 33.1164 16.8764C32.9413 16.8769 32.7678 16.8426 32.6061 16.7755C32.4443 16.7085 32.2975 16.61 32.1741 16.4857L29.2381 13.5499C29.0826 13.3944 28.9969 13.1877 28.9969 12.9677C28.9969 12.7477 29.0826 12.541 29.2382 12.3854C29.3936 12.23 29.6004 12.1442 29.8204 12.1442C30.0403 12.1442 30.2471 12.2299 30.4027 12.3855L32.6191 14.6019C32.751 14.7337 32.9298 14.8078 33.1163 14.8078C33.3028 14.8078 33.4816 14.7337 33.6135 14.6019L38.0022 10.2135C38.1577 10.0579 38.3644 9.97233 38.5844 9.97233C38.8044 9.97233 39.0111 10.0579 39.1667 10.2135C39.2434 10.2897 39.3043 10.3805 39.3457 10.4804C39.3871 10.5803 39.4083 10.6875 39.4079 10.7957ZM44.5257 13.4C44.5257 10.8776 43.6056 8.44965 41.9348 6.56353C41.8736 6.49437 41.7993 6.43796 41.7163 6.3975C41.6333 6.35705 41.5431 6.33335 41.4509 6.32776C41.3587 6.32217 41.2663 6.3348 41.179 6.36492C41.0917 6.39505 41.0112 6.44208 40.9421 6.50333C40.8024 6.62699 40.7177 6.80105 40.7064 6.98722C40.6951 7.17339 40.7582 7.35641 40.8819 7.49604C42.3244 9.12427 43.1203 11.2246 43.1191 13.4C43.1191 18.3119 39.1231 22.3079 34.2113 22.3079C29.2994 22.3079 25.3033 18.3119 25.3033 13.4C25.3033 8.39526 29.213 4.49212 34.2113 4.49212C35.7199 4.49212 37.21 4.87591 38.5205 5.60185C38.6836 5.69177 38.8758 5.71331 39.0547 5.66174C39.2337 5.61017 39.3849 5.4897 39.4752 5.32678C39.5655 5.16385 39.5874 4.97177 39.5362 4.79269C39.485 4.6136 39.3649 4.46214 39.2021 4.37154C37.6835 3.53026 35.9576 3.08562 34.2112 3.08562C31.8341 3.08562 29.6426 3.89436 27.8964 5.25051C26.0235 3.06659 24.4441 1.36153 23.6357 0.505064C22.9994 -0.16912 21.8867 -0.16762 21.2516 0.505157C19.5475 2.31064 15.1527 7.10109 11.1598 12.578C6.06032 19.573 3.47461 25.1139 3.47461 29.0469C3.47461 32.4203 4.37299 35.7329 6.0727 38.6264C6.27139 38.9647 6.70525 39.0704 7.03531 38.8766C7.11495 38.8298 7.18459 38.7678 7.24026 38.6941C7.29593 38.6204 7.33654 38.5365 7.35977 38.4471C7.383 38.3577 7.3884 38.2646 7.37565 38.1732C7.36291 38.0817 7.33226 37.9936 7.28548 37.914C5.71264 35.2362 4.88111 32.1699 4.88111 29.0469C4.88111 28.3058 4.98829 27.5126 5.18201 26.6812C10.5909 26.4475 14.4931 28.2296 18.6171 30.1129C19.3837 30.463 20.157 30.8158 20.9469 31.1593L20.954 31.1624C23.4138 32.2319 26.0384 33.2094 29.1492 33.7218C30.6227 33.9645 32.1273 34.0856 33.6571 34.0856C35.5462 34.0856 37.4733 33.8999 39.4244 33.5307C37.436 41.0408 30.5772 46.5935 22.4437 46.5935C17.3306 46.5935 12.4809 44.3726 9.13841 40.5003C9.01552 40.3627 8.8435 40.2789 8.65941 40.2669C8.47532 40.255 8.2939 40.3158 8.15425 40.4364C8.0146 40.5569 7.92789 40.7275 7.91283 40.9113C7.89776 41.0952 7.95553 41.2776 8.07369 41.4193C11.6837 45.6016 16.9213 48.0001 22.4438 48.0001C33.0217 48.0001 41.413 39.3654 41.413 29.0469C41.413 27.1442 40.7997 24.8421 39.5904 22.1974C42.5485 20.382 44.5257 17.1176 44.5257 13.4ZM39.7514 32.0306C36.1775 32.7759 32.6897 32.8795 29.3779 32.3339C27.3248 31.9958 25.4779 31.4371 23.743 30.7813C31.9637 29.3488 36.1774 29.3757 39.9168 30.8259C39.8757 31.2293 39.8205 31.6311 39.7514 32.0306ZM40.0065 29.0469C40.0065 29.1503 40.0044 29.2532 40.0026 29.3562C35.7799 27.84 30.9691 27.9768 21.3281 29.7903C20.6089 29.4755 19.9022 29.1535 19.2016 28.8334C15.0331 26.9298 11.0814 25.127 5.58474 25.2608C8.51664 16.3796 19.7546 4.1404 22.2744 1.47077C22.3787 1.36022 22.5095 1.36059 22.6132 1.47058C23.4151 2.3203 24.9849 4.01513 26.8465 6.18668C25.0231 8.04795 23.8968 10.5948 23.8968 13.4C23.8968 19.0873 28.524 23.7144 34.2113 23.7144C35.6793 23.7144 37.0764 23.4055 38.3418 22.8502C39.4459 25.2788 40.0065 27.3617 40.0065 29.0469Z" fill="#FB7800"/>
</g>
<defs>
<clipPath id="clip0_100_1387">
<rect width="48" height="48" fill="white"/>
</clipPath>
</defs>
</svg>
