<svg width="54" height="54" viewBox="0 0 54 54" fill="none" xmlns="http://www.w3.org/2000/svg">
<g clip-path="url(#clip0_100_1374)">
<path d="M49.7812 41.3438C48.439 41.3424 47.1521 40.8086 46.203 39.8595C45.2539 38.9104 44.7201 37.6235 44.7188 36.2812C44.7188 36.0575 44.6299 35.8429 44.4716 35.6846C44.3134 35.5264 44.0988 35.4375 43.875 35.4375C43.6512 35.4375 43.4366 35.5264 43.2784 35.6846C43.1201 35.8429 43.0312 36.0575 43.0312 36.2812C43.0299 37.6235 42.4961 38.9104 41.547 39.8595C40.5979 40.8086 39.311 41.3424 37.9688 41.3438C37.745 41.3438 37.5304 41.4326 37.3721 41.5909C37.2139 41.7491 37.125 41.9637 37.125 42.1875C37.125 42.4113 37.2139 42.6259 37.3721 42.7841C37.5304 42.9424 37.745 43.0312 37.9688 43.0312C39.311 43.0326 40.5979 43.5664 41.547 44.5155C42.4961 45.4646 43.0299 46.7515 43.0312 48.0938C43.0312 48.3175 43.1201 48.5321 43.2784 48.6904C43.4366 48.8486 43.6512 48.9375 43.875 48.9375C44.0988 48.9375 44.3134 48.8486 44.4716 48.6904C44.6299 48.5321 44.7188 48.3175 44.7188 48.0938C44.7201 46.7515 45.2539 45.4646 46.203 44.5155C47.1521 43.5664 48.439 43.0326 49.7812 43.0312C50.005 43.0312 50.2196 42.9424 50.3779 42.7841C50.5361 42.6259 50.625 42.4113 50.625 42.1875C50.625 41.9637 50.5361 41.7491 50.3779 41.5909C50.2196 41.4326 50.005 41.3438 49.7812 41.3438ZM43.875 44.8284C43.2586 43.7188 42.3437 42.8039 41.2341 42.1875C42.3437 41.5711 43.2586 40.6562 43.875 39.5466C44.4914 40.6562 45.4063 41.5711 46.5159 42.1875C45.4063 42.8039 44.4914 43.7188 43.875 44.8284ZM0.84375 7.59375C2.186 7.59509 3.47289 8.12889 4.422 9.078C5.37111 10.0271 5.90491 11.314 5.90625 12.6562C5.90625 12.88 5.99514 13.0946 6.15338 13.2529C6.31161 13.4111 6.52622 13.5 6.75 13.5C6.97378 13.5 7.18839 13.4111 7.34662 13.2529C7.50486 13.0946 7.59375 12.88 7.59375 12.6562C7.59509 11.314 8.12889 10.0271 9.078 9.078C10.0271 8.12889 11.314 7.59509 12.6562 7.59375C12.88 7.59375 13.0946 7.50486 13.2529 7.34662C13.4111 7.18839 13.5 6.97378 13.5 6.75C13.5 6.52622 13.4111 6.31161 13.2529 6.15338C13.0946 5.99514 12.88 5.90625 12.6562 5.90625C11.314 5.90491 10.0271 5.37111 9.078 4.422C8.12889 3.47289 7.59509 2.186 7.59375 0.84375C7.59375 0.619974 7.50486 0.405362 7.34662 0.247129C7.18839 0.0888949 6.97378 0 6.75 0C6.52622 0 6.31161 0.0888949 6.15338 0.247129C5.99514 0.405362 5.90625 0.619974 5.90625 0.84375C5.90491 2.186 5.37111 3.47289 4.422 4.422C3.47289 5.37111 2.186 5.90491 0.84375 5.90625C0.619974 5.90625 0.405362 5.99514 0.247129 6.15338C0.0888949 6.31161 0 6.52622 0 6.75C0 6.97378 0.0888949 7.18839 0.247129 7.34662C0.405362 7.50486 0.619974 7.59375 0.84375 7.59375ZM6.75 4.10906C7.3667 5.21851 8.28149 6.1333 9.39094 6.75C8.28149 7.3667 7.3667 8.28149 6.75 9.39094C6.1333 8.28149 5.21851 7.3667 4.10906 6.75C5.21851 6.1333 6.1333 5.21851 6.75 4.10906ZM39.6562 27C39.4325 27 39.2179 27.0889 39.0596 27.2471C38.9014 27.4054 38.8125 27.62 38.8125 27.8438V28.6875H37.9688C37.745 28.6875 37.5304 28.7764 37.3721 28.9346C37.2139 29.0929 37.125 29.3075 37.125 29.5312C37.125 29.755 37.2139 29.9696 37.3721 30.1279C37.5304 30.2861 37.745 30.375 37.9688 30.375H38.8125V31.2188C38.8125 31.4425 38.9014 31.6571 39.0596 31.8154C39.2179 31.9736 39.4325 32.0625 39.6562 32.0625C39.88 32.0625 40.0946 31.9736 40.2529 31.8154C40.4111 31.6571 40.5 31.4425 40.5 31.2188V30.375H41.3438C41.5675 30.375 41.7821 30.2861 41.9404 30.1279C42.0986 29.9696 42.1875 29.755 42.1875 29.5312C42.1875 29.3075 42.0986 29.0929 41.9404 28.9346C41.7821 28.7764 41.5675 28.6875 41.3438 28.6875H40.5V27.8438C40.5 27.62 40.4111 27.4054 40.2529 27.2471C40.0946 27.0889 39.88 27 39.6562 27ZM24.4688 13.5H25.3125V14.3438C25.3125 14.5675 25.4014 14.7821 25.5596 14.9404C25.7179 15.0986 25.9325 15.1875 26.1562 15.1875C26.38 15.1875 26.5946 15.0986 26.7529 14.9404C26.9111 14.7821 27 14.5675 27 14.3438V13.5H27.8438C28.0675 13.5 28.2821 13.4111 28.4404 13.2529C28.5986 13.0946 28.6875 12.88 28.6875 12.6562C28.6875 12.4325 28.5986 12.2179 28.4404 12.0596C28.2821 11.9014 28.0675 11.8125 27.8438 11.8125H27V10.9688C27 10.745 26.9111 10.5304 26.7529 10.3721C26.5946 10.2139 26.38 10.125 26.1562 10.125C25.9325 10.125 25.7179 10.2139 25.5596 10.3721C25.4014 10.5304 25.3125 10.745 25.3125 10.9688V11.8125H24.4688C24.245 11.8125 24.0304 11.9014 23.8721 12.0596C23.7139 12.2179 23.625 12.4325 23.625 12.6562C23.625 12.88 23.7139 13.0946 23.8721 13.2529C24.0304 13.4111 24.245 13.5 24.4688 13.5ZM17.6681 10.6802C17.609 10.5173 17.5012 10.3766 17.3593 10.2771C17.2174 10.1777 17.0483 10.1243 16.875 10.1243C16.7017 10.1243 16.5326 10.1777 16.3907 10.2771C16.2488 10.3766 16.141 10.5173 16.0819 10.6802C16.049 10.7713 12.7069 19.8475 7.84097 24.716C2.78438 29.7717 0 32.5569 0 39.6562C0 46.6096 5.91384 54 16.875 54C27.8362 54 33.75 46.6096 33.75 39.6562C33.75 32.5569 30.9656 29.7717 25.909 24.716C21.0406 19.8475 17.701 10.7713 17.6681 10.6802ZM16.875 52.3125C7.01072 52.3125 1.6875 45.7912 1.6875 39.6562C1.6875 33.2556 3.99009 30.9538 9.03403 25.909C12.7794 22.1636 15.579 16.2945 16.875 13.241C18.171 16.2945 20.9706 22.1636 24.716 25.909C29.7599 30.9538 32.0625 33.2556 32.0625 39.6562C32.0625 45.7912 26.7393 52.3125 16.875 52.3125Z" fill="#FB7800"/>
<path d="M23.625 35.4377H20.25V32.0627C20.25 31.8389 20.1611 31.6243 20.0029 31.4661C19.8446 31.3079 19.63 31.219 19.4062 31.219H14.3438C14.12 31.219 13.9054 31.3079 13.7471 31.4661C13.5889 31.6243 13.5 31.8389 13.5 32.0627V35.4377H10.125C9.90122 35.4377 9.68661 35.5266 9.52838 35.6848C9.37015 35.8431 9.28125 36.0577 9.28125 36.2815V41.344C9.28125 41.5677 9.37015 41.7823 9.52838 41.9406C9.68661 42.0988 9.90122 42.1877 10.125 42.1877H13.5V45.5627C13.5 45.7865 13.5889 46.0011 13.7471 46.1593C13.9054 46.3176 14.12 46.4065 14.3438 46.4065H19.4062C19.63 46.4065 19.8446 46.3176 20.0029 46.1593C20.1611 46.0011 20.25 45.7865 20.25 45.5627V42.1877H23.625C23.8488 42.1877 24.0634 42.0988 24.2216 41.9406C24.3799 41.7823 24.4688 41.5677 24.4688 41.344V36.2815C24.4688 36.0577 24.3799 35.8431 24.2216 35.6848C24.0634 35.5266 23.8488 35.4377 23.625 35.4377ZM22.7812 40.5002H19.4062C19.1825 40.5002 18.9679 40.5891 18.8096 40.7473C18.6514 40.9056 18.5625 41.1202 18.5625 41.344V44.719H15.1875V41.344C15.1875 41.1202 15.0986 40.9056 14.9404 40.7473C14.7821 40.5891 14.5675 40.5002 14.3438 40.5002H10.9688V37.1252H14.3438C14.5675 37.1252 14.7821 37.0363 14.9404 36.8781C15.0986 36.7198 15.1875 36.5052 15.1875 36.2815V32.9065H18.5625V36.2815C18.5625 36.5052 18.6514 36.7198 18.8096 36.8781C18.9679 37.0363 19.1825 37.1252 19.4062 37.1252H22.7812V40.5002ZM24.6257 47.8282C24.7556 48.0102 24.9524 48.1333 25.1729 48.1703C25.3935 48.2073 25.6197 48.1553 25.8019 48.0256C27.1737 47.0938 28.304 45.8487 29.0992 44.3934C29.8945 42.938 30.3318 41.3143 30.375 39.6565C30.375 39.4327 30.2861 39.2181 30.1279 39.0598C29.9696 38.9016 29.755 38.8127 29.5312 38.8127C29.3075 38.8127 29.0929 38.9016 28.9346 39.0598C28.7764 39.2181 28.6875 39.4327 28.6875 39.6565C28.6442 41.0453 28.2712 42.4039 27.5993 43.6201C26.9274 44.8363 25.9758 45.8752 24.8231 46.6511C24.7329 46.7155 24.6561 46.7969 24.5974 46.8909C24.5386 46.9848 24.4989 47.0895 24.4806 47.1988C24.4622 47.3081 24.4656 47.4199 24.4905 47.5279C24.5154 47.6359 24.5613 47.7379 24.6257 47.8282ZM28.6875 36.2815H30.375V37.969H28.6875V36.2815ZM48.152 4.97834C46.8286 3.5541 45.6334 2.01588 44.5804 0.381587C44.499 0.271003 44.3927 0.181103 44.2702 0.119144C44.1477 0.0571848 44.0123 0.0249023 43.875 0.0249023C43.7377 0.0249023 43.6023 0.0571848 43.4798 0.119144C43.3573 0.181103 43.251 0.271003 43.1696 0.381587C42.1168 2.01607 40.9217 3.5543 39.598 4.97834C34.5819 10.2687 33.75 11.2719 33.75 15.6568C33.75 19.5195 37.2988 23.6252 43.875 23.6252C50.4512 23.6252 54 19.5195 54 15.6568C54 11.2719 53.1681 10.2687 48.152 4.97834ZM43.875 21.9377C38.3948 21.9377 35.4375 18.7019 35.4375 15.6568C35.4375 11.9443 35.9707 11.2567 40.8232 6.13596C41.9319 4.95051 42.9519 3.68513 43.875 2.35006C44.7981 3.68513 45.8181 4.95051 46.9268 6.13596C51.7793 11.2567 52.3125 11.9443 52.3125 15.6568C52.3125 18.7019 49.3594 21.9377 43.875 21.9377Z" fill="#FB7800"/>
<path d="M49.7816 14.8129C49.5578 14.8129 49.3432 14.9018 49.185 15.06C49.0268 15.2182 48.9379 15.4328 48.9379 15.6566C48.9379 16.2042 48.5118 17.3171 46.9129 18.0132C46.7077 18.1027 46.5464 18.2701 46.4646 18.4785C46.3828 18.6869 46.3871 18.9192 46.4767 19.1244C46.5662 19.3296 46.7335 19.4909 46.9419 19.5727C47.1503 19.6545 47.3827 19.6502 47.5879 19.5607C49.8306 18.5836 50.6254 16.8472 50.6254 15.6566C50.6254 15.4328 50.5365 15.2182 50.3782 15.06C50.22 14.9018 50.0054 14.8129 49.7816 14.8129ZM48.9379 11.8125H50.6254V13.5H48.9379V11.8125Z" fill="#FB7800"/>
</g>
<defs>
<clipPath id="clip0_100_1374">
<rect width="54" height="54" fill="white"/>
</clipPath>
</defs>
</svg>
