<svg width="52" height="22" viewBox="0 0 52 22" fill="none" xmlns="http://www.w3.org/2000/svg">
<path fill-rule="evenodd" clip-rule="evenodd" d="M23.8478 16.9366V10.8826H27.0592C28.3752 10.8826 29.4859 10.4536 30.3913 9.60746L30.6086 9.39295C32.2626 7.6411 32.154 4.91204 30.3913 3.29128C29.51 2.43324 28.3027 1.96846 27.0592 1.9923H21.9041V16.9366H23.8478ZM23.8481 9.04731V3.82753H27.1082C27.8086 3.82753 28.4727 4.08971 28.9678 4.5664C30.0183 5.56745 30.0424 7.23588 29.0281 8.27268C28.5331 8.78513 27.8327 9.07114 27.1082 9.04731H23.8481Z" fill="#3C4043"/>
<path fill-rule="evenodd" clip-rule="evenodd" d="M39.6754 7.51002C38.8424 6.75923 37.7075 6.37788 36.2709 6.37788C34.4237 6.37788 33.0353 7.04525 32.1178 8.36807L33.8321 9.42871C34.4599 8.52299 35.3171 8.07013 36.4037 8.07013C37.0918 8.07013 37.7558 8.3204 38.2749 8.77325C38.782 9.20228 39.0718 9.82198 39.0718 10.4774V10.9184C38.3232 10.5132 37.3816 10.2987 36.2226 10.2987C34.8704 10.2987 33.7838 10.6085 32.975 11.2401C32.1661 11.8718 31.7556 12.706 31.7556 13.7666C31.7315 14.7319 32.154 15.6495 32.9025 16.2692C33.6631 16.9366 34.6289 17.2703 35.7638 17.2703C37.1039 17.2703 38.1663 16.6863 38.9752 15.5185H39.0597V16.9366H40.9189V10.6324C40.9189 9.30953 40.5084 8.26081 39.6754 7.51002ZM34.3999 15.0537C34.0014 14.7676 33.7599 14.3029 33.7599 13.8023C33.7599 13.2422 34.0256 12.7775 34.5448 12.408C35.0761 12.0386 35.7402 11.8479 36.5251 11.8479C37.6118 11.836 38.457 12.0743 39.0608 12.551C39.0608 13.3614 38.7348 14.0645 38.0948 14.6604C37.5152 15.2324 36.7303 15.5542 35.9093 15.5542C35.3659 15.5661 34.8346 15.3873 34.3999 15.0537Z" fill="#3C4043"/>
<path d="M45.0962 21.4294L51.5914 6.71157H49.4786L46.4725 14.0526H46.4362L43.3577 6.71157H41.2449L45.5066 16.2812L43.0921 21.4294H45.0962Z" fill="#3C4043"/>
<path d="M17.1374 9.5717C17.1374 8.98775 17.0891 8.4038 16.9925 7.83177H8.79502V11.1329H13.4914C13.2982 12.1935 12.6704 13.1469 11.7529 13.7428V15.8879H14.5538C16.1957 14.3982 17.1374 12.1935 17.1374 9.5717Z" fill="#4285F4"/>
<path d="M8.79536 17.9615C11.1375 17.9615 13.1171 17.1988 14.5538 15.8879L11.7529 13.7428C10.9681 14.2671 9.96643 14.5651 8.79536 14.5651C6.52567 14.5651 4.60608 13.0516 3.91793 11.0256H1.03252V13.2422C2.50541 16.1381 5.51155 17.9615 8.79536 17.9615Z" fill="#34A853"/>
<path d="M3.91793 11.0256C3.55569 9.96497 3.55601 8.80903 3.91826 7.73647V5.53177H1.03239C-0.211316 7.95098 -0.211316 10.8111 1.03239 13.2303L3.91793 11.0256Z" fill="#FBBC04"/>
<path d="M8.79536 4.197C10.0389 4.17317 11.2341 4.63794 12.1275 5.48407L14.6145 3.0291C13.0329 1.57519 10.9564 0.776733 8.79536 0.800567C5.51155 0.800567 2.50527 2.63586 1.03239 5.53177L3.91793 7.74836C4.60608 5.7105 6.52567 4.197 8.79536 4.197Z" fill="#EA4335"/>
</svg>
