<svg width="29" height="29" viewBox="0 0 29 29" fill="none" xmlns="http://www.w3.org/2000/svg">
<path d="M14.7746 3.11121C18.5729 3.11121 19.0227 3.12543 20.5232 3.19385C21.4254 3.20489 22.319 3.37055 23.1652 3.68363C23.7788 3.92028 24.3361 4.2828 24.8011 4.74785C25.2662 5.2129 25.6287 5.77018 25.8653 6.38382C26.1784 7.22999 26.3441 8.12359 26.3551 9.02575C26.4229 10.5262 26.4378 10.976 26.4378 14.7743C26.4378 18.5726 26.4235 19.0224 26.3551 20.5229C26.3441 21.4251 26.1784 22.3187 25.8653 23.1648C25.6287 23.7785 25.2662 24.3358 24.8011 24.8008C24.3361 25.2659 23.7788 25.6284 23.1652 25.865C22.319 26.1781 21.4254 26.3438 20.5232 26.3548C19.0234 26.4226 18.5736 26.4375 14.7746 26.4375C10.9757 26.4375 10.5259 26.4232 9.02605 26.3548C8.12389 26.3438 7.23029 26.1781 6.38412 25.865C5.77049 25.6284 5.2132 25.2659 4.74815 24.8008C4.2831 24.3358 3.92058 23.7785 3.68392 23.1648C3.37085 22.3187 3.20519 21.4251 3.19415 20.5229C3.12641 19.0224 3.11151 18.5726 3.11151 14.7743C3.11151 10.976 3.12573 10.5262 3.19415 9.02575C3.20519 8.12359 3.37085 7.22999 3.68392 6.38382C3.92058 5.77018 4.2831 5.2129 4.74815 4.74785C5.2132 4.2828 5.77049 3.92028 6.38412 3.68363C7.23029 3.37055 8.12389 3.20489 9.02605 3.19385C10.5265 3.12611 10.9763 3.11121 14.7746 3.11121ZM14.7746 0.547852C10.9133 0.547852 10.427 0.56411 8.90954 0.633206C7.72883 0.656691 6.56065 0.880248 5.4547 1.29437C4.50597 1.65182 3.64666 2.21198 2.93673 2.93575C2.2123 3.64594 1.65166 4.50574 1.29399 5.45508C0.87987 6.56103 0.656313 7.72921 0.632828 8.90991C0.565086 10.426 0.548828 10.9124 0.548828 14.7737C0.548828 18.6349 0.565086 19.1213 0.634183 20.6388C0.657668 21.8195 0.881225 22.9876 1.29534 24.0936C1.65262 25.0428 2.21279 25.9026 2.93673 26.6129C3.64705 27.3369 4.50684 27.897 5.45605 28.2543C6.56201 28.6684 7.73018 28.892 8.91089 28.9155C10.4283 28.9832 10.9127 29.0008 14.776 29.0008C18.6393 29.0008 19.1237 28.9846 20.6411 28.9155C21.8218 28.892 22.99 28.6684 24.0959 28.2543C25.0406 27.8881 25.8985 27.3288 26.6147 26.6121C27.3309 25.8954 27.8897 25.0372 28.2553 24.0922C28.6694 22.9863 28.893 21.8181 28.9164 20.6374C28.9842 19.1213 29.0004 18.6349 29.0004 14.7737C29.0004 10.9124 28.9842 10.426 28.9151 8.90856C28.8916 7.72785 28.668 6.55967 28.2539 5.45372C27.8966 4.50451 27.3365 3.64472 26.6125 2.9344C25.9022 2.21046 25.0424 1.65029 24.0932 1.29301C22.9873 0.878893 21.8191 0.655336 20.6384 0.631852C19.1223 0.56411 18.6359 0.547852 14.7746 0.547852Z" fill="white"/>
<path d="M14.7779 7.47119C13.3331 7.47119 11.9207 7.89964 10.7193 8.70236C9.518 9.50507 8.58166 10.646 8.02874 11.9809C7.47582 13.3157 7.33115 14.7846 7.61303 16.2017C7.8949 17.6188 8.59067 18.9204 9.61233 19.9421C10.634 20.9638 11.9357 21.6595 13.3528 21.9414C14.7698 22.2233 16.2387 22.0786 17.5736 21.5257C18.9084 20.9728 20.0494 20.0364 20.8521 18.8351C21.6548 17.6337 22.0832 16.2213 22.0832 14.7765C22.0832 12.839 21.3136 10.9809 19.9436 9.61086C18.5736 8.24085 16.7154 7.47119 14.7779 7.47119ZM14.7779 19.5184C13.8401 19.5184 12.9233 19.2403 12.1435 18.7193C11.3637 18.1982 10.7559 17.4576 10.397 16.5911C10.0381 15.7247 9.94416 14.7712 10.1271 13.8514C10.3101 12.9315 10.7617 12.0866 11.4249 11.4234C12.0881 10.7603 12.933 10.3086 13.8528 10.1257C14.7727 9.94269 15.7261 10.0366 16.5926 10.3955C17.4591 10.7544 18.1997 11.3622 18.7207 12.142C19.2418 12.9218 19.5199 13.8386 19.5199 14.7765C19.5199 16.0341 19.0203 17.2402 18.131 18.1295C17.2417 19.0188 16.0356 19.5184 14.7779 19.5184Z" fill="white"/>
<path d="M22.3702 8.88783C23.313 8.88783 24.0773 8.12353 24.0773 7.18073C24.0773 6.23793 23.313 5.47363 22.3702 5.47363C21.4274 5.47363 20.6631 6.23793 20.6631 7.18073C20.6631 8.12353 21.4274 8.88783 22.3702 8.88783Z" fill="white"/>
</svg>
