<svg width="110" height="28" viewBox="0 0 110 28" fill="none" xmlns="http://www.w3.org/2000/svg">
<path d="M26.04 6.8C26.04 8.5 25.44 9.97 24.24 11.21C23.04 12.43 21.29 13.31 18.99 13.85C20.23 14.19 21.17 14.75 21.81 15.53C22.45 16.29 22.77 17.17 22.77 18.17C22.77 19.75 22.27 21.12 21.27 22.28C20.29 23.44 18.85 24.34 16.95 24.98C15.05 25.6 12.76 25.91 10.08 25.91C9.08 25.91 8.28 25.88 7.68 25.82C7.66 26.38 7.42 26.8 6.96 27.08C6.5 27.36 5.91 27.5 5.19 27.5C4.47 27.5 3.97 27.34 3.69 27.02C3.43 26.7 3.32 26.23 3.36 25.61C3.54 22.81 3.89 19.88 4.41 16.82C4.93 13.74 5.59 10.77 6.39 7.91C6.53 7.41 6.81 7.06 7.23 6.86C7.65 6.66 8.2 6.56 8.88 6.56C10.1 6.56 10.71 6.9 10.71 7.58C10.71 7.86 10.65 8.18 10.53 8.54C10.01 10.1 9.49 12.22 8.97 14.9C8.45 17.56 8.08 20.1 7.86 22.52C8.82 22.6 9.6 22.64 10.2 22.64C13 22.64 15.05 22.24 16.35 21.44C17.67 20.62 18.33 19.58 18.33 18.32C18.33 17.44 17.95 16.7 17.19 16.1C16.45 15.5 15.2 15.17 13.44 15.11C13.04 15.09 12.76 14.99 12.6 14.81C12.44 14.63 12.36 14.34 12.36 13.94C12.36 13.36 12.48 12.89 12.72 12.53C12.96 12.17 13.4 11.98 14.04 11.96C15.46 11.92 16.74 11.71 17.88 11.33C19.04 10.95 19.95 10.42 20.61 9.74C21.27 9.04 21.6 8.23 21.6 7.31C21.6 6.15 21.03 5.24 19.89 4.58C18.75 3.9 17 3.56 14.64 3.56C12.5 3.56 10.43 3.84 8.43 4.4C6.43 4.94 4.73 5.63 3.33 6.47C2.69 6.85 2.15 7.04 1.71 7.04C1.35 7.04 1.07 6.92 0.87 6.68C0.69 6.42 0.6 6.1 0.6 5.72C0.6 5.22 0.7 4.79 0.9 4.43C1.12 4.07 1.63 3.66 2.43 3.2C4.11 2.24 6.08 1.49 8.34 0.949999C10.6 0.409999 12.91 0.139999 15.27 0.139999C18.89 0.139999 21.59 0.749998 23.37 1.97C25.15 3.19 26.04 4.8 26.04 6.8ZM48.0345 19.31C48.2945 19.31 48.4945 19.43 48.6345 19.67C48.7945 19.91 48.8745 20.24 48.8745 20.66C48.8745 21.44 48.6845 22.06 48.3045 22.52C47.1845 23.86 46.0945 24.8 45.0345 25.34C43.9945 25.88 42.7345 26.15 41.2545 26.15C40.2145 26.15 39.2545 26.02 38.3745 25.76C37.4945 25.5 36.4245 25.11 35.1645 24.59C34.0245 24.09 32.9245 23.68 31.8645 23.36C30.8445 25.22 29.3145 26.15 27.2745 26.15C26.1545 26.15 25.2645 25.9 24.6045 25.4C23.9245 24.88 23.5845 24.22 23.5845 23.42C23.5845 22.44 24.0545 21.63 24.9945 20.99C25.9345 20.33 27.1845 20 28.7445 20H29.1345L29.6745 11.27C29.7945 9.27 30.1545 7.62 30.7545 6.32C31.3545 5.02 32.1845 3.91 33.2445 2.99C34.1645 2.19 35.2145 1.59 36.3945 1.19C37.5745 0.769999 38.8245 0.559999 40.1445 0.559999C42.3045 0.559999 43.9645 1.12 45.1245 2.24C46.2845 3.36 46.8645 4.82 46.8645 6.62C46.8645 7.84 46.6445 8.83 46.2045 9.59C45.7645 10.33 45.1545 10.7 44.3745 10.7C43.8145 10.7 43.3745 10.57 43.0545 10.31C42.7345 10.03 42.5745 9.64 42.5745 9.14C42.5745 8.96 42.6145 8.63 42.6945 8.15C42.8145 7.59 42.8745 7.09 42.8745 6.65C42.8745 5.81 42.6245 5.15 42.1245 4.67C41.6445 4.17 40.9045 3.92 39.9045 3.92C38.1445 3.92 36.7845 4.5 35.8245 5.66C34.8645 6.8 34.2545 8.6 33.9945 11.06L33.3045 17.87C33.2045 18.83 33.0745 19.66 32.9145 20.36C34.1945 20.58 35.7945 20.93 37.7145 21.41C38.8345 21.69 39.6945 21.89 40.2945 22.01C40.8945 22.13 41.4245 22.19 41.8845 22.19C43.0445 22.19 44.0345 22 44.8545 21.62C45.6945 21.22 46.4845 20.59 47.2245 19.73C47.4645 19.45 47.7345 19.31 48.0345 19.31ZM67.7595 0.739998C68.2795 0.739998 68.7195 0.869998 69.0795 1.13C69.4395 1.37 69.6195 1.67 69.6195 2.03C69.6195 2.67 69.4195 3.19 69.0195 3.59C68.6195 3.97 68.0495 4.16 67.3095 4.16C66.1495 4.16 65.2695 4.17 64.6695 4.19C64.6295 4.43 64.4495 5.51 64.1295 7.43C63.7695 9.57 63.5495 10.88 63.4695 11.36L62.8395 15.29C62.3995 18.23 62.0495 20.69 61.7895 22.67C62.2095 22.65 62.7795 22.64 63.4995 22.64C64.5595 22.64 65.2795 22.78 65.6595 23.06C66.0395 23.34 66.2295 23.76 66.2295 24.32C66.2295 24.84 66.0195 25.28 65.5995 25.64C65.1995 26 64.6295 26.18 63.8895 26.18C63.3895 26.18 62.5995 26.16 61.5195 26.12C60.5195 26.08 59.8595 26.06 59.5395 26.06C58.2795 26.06 56.8995 26.17 55.3995 26.39C54.7395 26.49 54.2695 26.54 53.9895 26.54C53.5495 26.54 53.1795 26.42 52.8795 26.18C52.5795 25.94 52.4295 25.59 52.4295 25.13C52.4295 24.41 52.7495 23.85 53.3895 23.45C54.0295 23.05 54.9295 22.84 56.0895 22.82L57.4995 22.79L57.5895 22.13C58.0695 18.93 58.4195 16.67 58.6395 15.35L59.2995 11.42C59.6995 9.1 60.0595 6.71 60.3795 4.25L57.8595 4.28C57.1395 4.28 56.6395 4.17 56.3595 3.95C56.0995 3.71 55.9695 3.38 55.9695 2.96C55.9695 1.6 56.9495 0.869999 58.9095 0.769999C59.8295 0.729999 60.9495 0.709998 62.2695 0.709998L67.7595 0.739998ZM77.603 26.24C74.943 26.24 72.813 25.74 71.213 24.74C69.613 23.72 68.813 22.17 68.813 20.09C68.813 18.99 69.003 18.15 69.383 17.57C69.763 16.99 70.323 16.7 71.063 16.7C71.603 16.7 72.043 16.84 72.383 17.12C72.723 17.4 72.893 17.76 72.893 18.2C72.893 18.6 72.863 18.95 72.803 19.25C72.803 19.33 72.783 19.47 72.743 19.67C72.723 19.87 72.713 20.08 72.713 20.3C72.713 21.2 73.163 21.87 74.063 22.31C74.983 22.75 76.263 22.97 77.903 22.97C79.603 22.97 80.933 22.67 81.893 22.07C82.853 21.45 83.333 20.59 83.333 19.49C83.333 18.81 83.113 18.23 82.673 17.75C82.233 17.25 81.683 16.84 81.023 16.52C80.363 16.18 79.433 15.77 78.233 15.29C76.693 14.69 75.433 14.12 74.453 13.58C73.493 13.04 72.663 12.31 71.963 11.39C71.283 10.45 70.943 9.29 70.943 7.91C70.943 6.47 71.323 5.19 72.083 4.07C72.863 2.95 73.973 2.08 75.413 1.46C76.873 0.839999 78.583 0.529999 80.543 0.529999C82.003 0.529999 83.343 0.749999 84.563 1.19C85.783 1.61 86.753 2.26 87.473 3.14C88.213 4.02 88.583 5.1 88.583 6.38C88.583 7.64 88.393 8.59 88.013 9.23C87.633 9.87 87.073 10.19 86.333 10.19C85.813 10.19 85.373 10.03 85.013 9.71C84.673 9.39 84.503 9.01 84.503 8.57C84.503 8.19 84.533 7.84 84.593 7.52C84.653 6.92 84.683 6.54 84.683 6.38C84.683 5.54 84.273 4.9 83.453 4.46C82.633 4.02 81.613 3.8 80.393 3.8C78.673 3.8 77.353 4.12 76.433 4.76C75.533 5.38 75.083 6.26 75.083 7.4C75.083 8.16 75.313 8.81 75.773 9.35C76.253 9.89 76.843 10.34 77.543 10.7C78.243 11.06 79.223 11.49 80.483 11.99C82.003 12.61 83.223 13.17 84.143 13.67C85.063 14.17 85.843 14.85 86.483 15.71C87.143 16.57 87.473 17.63 87.473 18.89C87.473 21.25 86.573 23.07 84.773 24.35C82.993 25.61 80.603 26.24 77.603 26.24ZM98.4038 26.24C95.7438 26.24 93.6138 25.74 92.0138 24.74C90.4138 23.72 89.6138 22.17 89.6138 20.09C89.6138 18.99 89.8038 18.15 90.1838 17.57C90.5638 16.99 91.1238 16.7 91.8638 16.7C92.4038 16.7 92.8438 16.84 93.1838 17.12C93.5238 17.4 93.6938 17.76 93.6938 18.2C93.6938 18.6 93.6638 18.95 93.6038 19.25C93.6038 19.33 93.5838 19.47 93.5438 19.67C93.5238 19.87 93.5138 20.08 93.5138 20.3C93.5138 21.2 93.9638 21.87 94.8638 22.31C95.7838 22.75 97.0638 22.97 98.7038 22.97C100.404 22.97 101.734 22.67 102.694 22.07C103.654 21.45 104.134 20.59 104.134 19.49C104.134 18.81 103.914 18.23 103.474 17.75C103.034 17.25 102.484 16.84 101.824 16.52C101.164 16.18 100.234 15.77 99.0338 15.29C97.4938 14.69 96.2338 14.12 95.2538 13.58C94.2938 13.04 93.4638 12.31 92.7638 11.39C92.0838 10.45 91.7438 9.29 91.7438 7.91C91.7438 6.47 92.1238 5.19 92.8838 4.07C93.6638 2.95 94.7738 2.08 96.2138 1.46C97.6738 0.839999 99.3838 0.529999 101.344 0.529999C102.804 0.529999 104.144 0.749999 105.364 1.19C106.584 1.61 107.554 2.26 108.274 3.14C109.014 4.02 109.384 5.1 109.384 6.38C109.384 7.64 109.194 8.59 108.814 9.23C108.434 9.87 107.874 10.19 107.134 10.19C106.614 10.19 106.174 10.03 105.814 9.71C105.474 9.39 105.304 9.01 105.304 8.57C105.304 8.19 105.334 7.84 105.394 7.52C105.454 6.92 105.484 6.54 105.484 6.38C105.484 5.54 105.074 4.9 104.254 4.46C103.434 4.02 102.414 3.8 101.194 3.8C99.4738 3.8 98.1538 4.12 97.2338 4.76C96.3338 5.38 95.8838 6.26 95.8838 7.4C95.8838 8.16 96.1138 8.81 96.5738 9.35C97.0538 9.89 97.6438 10.34 98.3438 10.7C99.0438 11.06 100.024 11.49 101.284 11.99C102.804 12.61 104.024 13.17 104.944 13.67C105.864 14.17 106.644 14.85 107.284 15.71C107.944 16.57 108.274 17.63 108.274 18.89C108.274 21.25 107.374 23.07 105.574 24.35C103.794 25.61 101.404 26.24 98.4038 26.24Z" fill="#1E1E1E"/>
</svg>
