<svg width="244" height="300" viewBox="0 0 244 300" fill="none" xmlns="http://www.w3.org/2000/svg">
<path d="M66.24 288.96H64.416L58.928 280.624V288.96H57.104V277.68H58.928L64.416 286.048V277.68H66.24V288.96ZM72.4798 280.032C73.3331 280.032 74.1011 280.213 74.7838 280.576C75.4664 280.938 75.9998 281.461 76.3837 282.144C76.7678 282.826 76.9598 283.626 76.9598 284.544C76.9598 285.472 76.7678 286.277 76.3837 286.96C75.9998 287.642 75.4664 288.165 74.7838 288.528C74.1011 288.89 73.3331 289.072 72.4798 289.072C71.6264 289.072 70.8584 288.89 70.1758 288.528C69.5038 288.165 68.9704 287.642 68.5758 286.96C68.1918 286.266 67.9998 285.461 67.9998 284.544C67.9998 283.626 68.1918 282.826 68.5758 282.144C68.9704 281.461 69.5038 280.938 70.1758 280.576C70.8584 280.213 71.6264 280.032 72.4798 280.032ZM72.4798 281.616C72.0104 281.616 71.5784 281.722 71.1838 281.936C70.7891 282.149 70.4691 282.48 70.2238 282.928C69.9891 283.365 69.8718 283.904 69.8718 284.544C69.8718 285.194 69.9891 285.738 70.2238 286.176C70.4691 286.613 70.7891 286.938 71.1838 287.152C71.5784 287.365 72.0104 287.472 72.4798 287.472C72.9491 287.472 73.3811 287.365 73.7758 287.152C74.1704 286.938 74.4851 286.613 74.7198 286.176C74.9651 285.738 75.0878 285.194 75.0878 284.544C75.0878 283.904 74.9651 283.365 74.7198 282.928C74.4851 282.48 74.1704 282.149 73.7758 281.936C73.3811 281.722 72.9491 281.616 72.4798 281.616ZM89.1354 277.664V279.136H84.2874V282.64H88.2874V284.048H84.2874V288.96H82.4634V277.664H89.1354ZM98.9523 284.128C98.9523 284.426 98.9309 284.688 98.8883 284.912H92.1043C92.1363 285.818 92.3869 286.49 92.8563 286.928C93.3256 287.365 93.9069 287.584 94.6003 287.584C95.2083 287.584 95.7203 287.429 96.1363 287.12C96.5629 286.81 96.8243 286.4 96.9203 285.888H98.8723C98.7549 286.506 98.5096 287.056 98.1363 287.536C97.7629 288.016 97.2776 288.394 96.6803 288.672C96.0829 288.938 95.4163 289.072 94.6803 289.072C93.8269 289.072 93.0696 288.89 92.4083 288.528C91.7576 288.165 91.2456 287.642 90.8723 286.96C90.4989 286.277 90.3123 285.472 90.3123 284.544C90.3123 283.626 90.4989 282.826 90.8723 282.144C91.2456 281.461 91.7576 280.938 92.4083 280.576C93.0696 280.213 93.8269 280.032 94.6803 280.032C95.5443 280.032 96.2963 280.213 96.9363 280.576C97.5869 280.928 98.0829 281.418 98.4243 282.048C98.7763 282.666 98.9523 283.36 98.9523 284.128ZM97.1123 284.08C97.1336 283.504 97.0323 283.024 96.8083 282.64C96.5949 282.245 96.2963 281.957 95.9123 281.776C95.5389 281.584 95.1283 281.488 94.6803 281.488C93.9656 281.488 93.3683 281.706 92.8883 282.144C92.4083 282.581 92.1469 283.226 92.1043 284.08H97.1123ZM108.905 284.128C108.905 284.426 108.884 284.688 108.841 284.912H102.057C102.089 285.818 102.34 286.49 102.809 286.928C103.279 287.365 103.86 287.584 104.553 287.584C105.161 287.584 105.673 287.429 106.089 287.12C106.516 286.81 106.777 286.4 106.873 285.888H108.825C108.708 286.506 108.463 287.056 108.089 287.536C107.716 288.016 107.231 288.394 106.633 288.672C106.036 288.938 105.369 289.072 104.633 289.072C103.78 289.072 103.023 288.89 102.361 288.528C101.711 288.165 101.199 287.642 100.825 286.96C100.452 286.277 100.265 285.472 100.265 284.544C100.265 283.626 100.452 282.826 100.825 282.144C101.199 281.461 101.711 280.938 102.361 280.576C103.023 280.213 103.78 280.032 104.633 280.032C105.497 280.032 106.249 280.213 106.889 280.576C107.54 280.928 108.036 281.418 108.377 282.048C108.729 282.666 108.905 283.36 108.905 284.128ZM107.065 284.08C107.087 283.504 106.985 283.024 106.761 282.64C106.548 282.245 106.249 281.957 105.865 281.776C105.492 281.584 105.081 281.488 104.633 281.488C103.919 281.488 103.321 281.706 102.841 282.144C102.361 282.581 102.1 283.226 102.057 284.08H107.065ZM114.203 280.032C115.003 280.032 115.685 280.229 116.251 280.624C116.816 281.018 117.211 281.541 117.435 282.192V277.12H119.275V288.96H117.435V286.912C117.211 287.562 116.816 288.085 116.251 288.48C115.685 288.874 115.003 289.072 114.203 289.072C113.435 289.072 112.747 288.89 112.139 288.528C111.541 288.165 111.072 287.642 110.731 286.96C110.389 286.277 110.219 285.472 110.219 284.544C110.219 283.626 110.389 282.826 110.731 282.144C111.072 281.461 111.541 280.938 112.139 280.576C112.747 280.213 113.435 280.032 114.203 280.032ZM114.763 281.632C113.952 281.632 113.301 281.893 112.811 282.416C112.331 282.928 112.091 283.637 112.091 284.544C112.091 285.45 112.331 286.165 112.811 286.688C113.301 287.2 113.952 287.456 114.763 287.456C115.275 287.456 115.733 287.338 116.139 287.104C116.544 286.858 116.864 286.517 117.099 286.08C117.333 285.642 117.451 285.13 117.451 284.544C117.451 283.968 117.333 283.461 117.099 283.024C116.864 282.576 116.544 282.234 116.139 282C115.733 281.754 115.275 281.632 114.763 281.632ZM134.189 277.664V288.96H132.349V283.888H127.037V288.96H125.213V277.664H127.037V282.4H132.349V277.664H134.189ZM144.593 284.128C144.593 284.426 144.572 284.688 144.529 284.912H137.745C137.777 285.818 138.028 286.49 138.497 286.928C138.966 287.365 139.548 287.584 140.241 287.584C140.849 287.584 141.361 287.429 141.777 287.12C142.204 286.81 142.465 286.4 142.561 285.888H144.513C144.396 286.506 144.15 287.056 143.777 287.536C143.404 288.016 142.918 288.394 142.321 288.672C141.724 288.938 141.057 289.072 140.321 289.072C139.468 289.072 138.71 288.89 138.049 288.528C137.398 288.165 136.886 287.642 136.513 286.96C136.14 286.277 135.953 285.472 135.953 284.544C135.953 283.626 136.14 282.826 136.513 282.144C136.886 281.461 137.398 280.938 138.049 280.576C138.71 280.213 139.468 280.032 140.321 280.032C141.185 280.032 141.937 280.213 142.577 280.576C143.228 280.928 143.724 281.418 144.065 282.048C144.417 282.666 144.593 283.36 144.593 284.128ZM142.753 284.08C142.774 283.504 142.673 283.024 142.449 282.64C142.236 282.245 141.937 281.957 141.553 281.776C141.18 281.584 140.769 281.488 140.321 281.488C139.606 281.488 139.009 281.706 138.529 282.144C138.049 282.581 137.788 283.226 137.745 284.08H142.753ZM148.178 281.872C148.477 281.296 148.903 280.842 149.458 280.512C150.013 280.17 150.653 280 151.378 280V281.984H150.834C150.034 281.984 149.389 282.181 148.898 282.576C148.418 282.96 148.178 283.6 148.178 284.496V288.96H146.354V280.144H148.178V281.872ZM160.937 284.128C160.937 284.426 160.915 284.688 160.873 284.912H154.089C154.121 285.818 154.371 286.49 154.841 286.928C155.31 287.365 155.891 287.584 156.585 287.584C157.193 287.584 157.705 287.429 158.121 287.12C158.547 286.81 158.809 286.4 158.905 285.888H160.857C160.739 286.506 160.494 287.056 160.121 287.536C159.747 288.016 159.262 288.394 158.665 288.672C158.067 288.938 157.401 289.072 156.665 289.072C155.811 289.072 155.054 288.89 154.393 288.528C153.742 288.165 153.23 287.642 152.857 286.96C152.483 286.277 152.297 285.472 152.297 284.544C152.297 283.626 152.483 282.826 152.857 282.144C153.23 281.461 153.742 280.938 154.393 280.576C155.054 280.213 155.811 280.032 156.665 280.032C157.529 280.032 158.281 280.213 158.921 280.576C159.571 280.928 160.067 281.418 160.409 282.048C160.761 282.666 160.937 283.36 160.937 284.128ZM159.097 284.08C159.118 283.504 159.017 283.024 158.793 282.64C158.579 282.245 158.281 281.957 157.897 281.776C157.523 281.584 157.113 281.488 156.665 281.488C155.95 281.488 155.353 281.706 154.873 282.144C154.393 282.581 154.131 283.226 154.089 284.08H159.097ZM169.008 277.312L168.768 285.424H167.232L166.992 277.312H169.008ZM169.056 286.944V288.96H166.976V286.944H169.056Z" fill="black"/>
<rect x="46.6631" y="1" width="195.811" height="41.2192" rx="6.50244" fill="white" stroke="#363636" stroke-width="2"/>
<rect x="55.6367" y="8.3114" width="24.9341" height="26.5964" fill="#FB7800" fill-opacity="0.84"/>
<path d="M231.838 14.9604H95.5313" stroke="#363636" stroke-width="3" stroke-linecap="round"/>
<path d="M155.373 28.2587H93.8689" stroke="#363636" stroke-width="3" stroke-linecap="round"/>
<path d="M196.151 27.1107C195.976 26.6232 195.439 26.3698 194.952 26.5448C194.464 26.7198 194.211 27.2568 194.386 27.7443L196.151 27.1107ZM181.139 90.594L181.116 91.5315L181.347 91.5372L181.555 91.4346L181.139 90.594ZM47.326 87.2694L47.1781 88.1955L47.24 88.2054L47.3027 88.2069L47.326 87.2694ZM1.61343 112.204L0.68027 112.297L0.680271 112.297L1.61343 112.204ZM32.3655 117.19L32.1719 116.273L32.0896 116.29L32.0117 116.322L32.3655 117.19ZM130.44 204.46L131.289 204.859L131.378 204.668L131.378 204.457L130.44 204.46ZM130.425 221.083C130.425 223.845 132.664 226.084 135.426 226.084C138.189 226.084 140.428 223.845 140.428 221.083C140.428 218.32 138.189 216.081 135.426 216.081C132.664 216.081 130.425 218.32 130.425 221.083ZM134.92 219.449C134.557 219.08 133.963 219.076 133.594 219.44C133.225 219.803 133.221 220.397 133.585 220.766L134.92 219.449ZM130.237 215.24C130.423 215.723 130.966 215.964 131.449 215.778C131.932 215.592 132.173 215.049 131.987 214.566L130.237 215.24ZM131.133 211.77C131.017 211.265 130.515 210.949 130.01 211.064C129.505 211.18 129.189 211.683 129.304 212.188L131.133 211.77ZM129.048 205.715C128.941 206.221 129.264 206.719 129.771 206.827C130.277 206.935 130.775 206.611 130.883 206.105L129.048 205.715ZM131.368 202.566C131.364 202.048 130.941 201.631 130.423 201.635C129.905 201.639 129.489 202.062 129.492 202.58L131.368 202.566ZM129.377 195.199C129.389 195.717 129.819 196.126 130.337 196.114C130.855 196.101 131.264 195.671 131.252 195.153L129.377 195.199ZM131.141 191.431C131.123 190.913 130.689 190.508 130.171 190.526C129.654 190.544 129.249 190.978 129.267 191.496L131.141 191.431ZM128.928 184.125C128.958 184.642 129.401 185.037 129.918 185.007C130.435 184.977 130.83 184.533 130.8 184.016L128.928 184.125ZM130.561 180.313C130.524 179.797 130.075 179.408 129.558 179.445C129.042 179.482 128.653 179.931 128.69 180.447L130.561 180.313ZM128.051 173.094C128.104 173.609 128.565 173.983 129.08 173.93C129.595 173.877 129.97 173.416 129.916 172.901L128.051 173.094ZM129.504 169.239C129.441 168.725 128.974 168.359 128.46 168.422C127.946 168.485 127.58 168.952 127.642 169.466L129.504 169.239ZM126.592 162.16C126.677 162.671 127.161 163.016 127.672 162.93C128.182 162.845 128.527 162.361 128.442 161.85L126.592 162.16ZM127.78 158.189C127.681 157.681 127.188 157.349 126.68 157.448C126.171 157.547 125.84 158.039 125.939 158.548L127.78 158.189ZM124.311 151.38C124.443 151.881 124.956 152.181 125.457 152.049C125.958 151.918 126.257 151.405 126.125 150.904L124.311 151.38ZM125.113 147.33C124.962 146.834 124.438 146.555 123.943 146.706C123.448 146.857 123.168 147.381 123.319 147.876L125.113 147.33ZM120.859 140.963C121.057 141.442 121.605 141.669 122.084 141.471C122.562 141.273 122.79 140.724 122.592 140.246L120.859 140.963ZM121.057 136.821C120.831 136.355 120.27 136.16 119.804 136.386C119.338 136.612 119.143 137.173 119.369 137.639L121.057 136.821ZM115.767 131.346C116.057 131.775 116.64 131.888 117.069 131.598C117.498 131.308 117.611 130.725 117.321 130.296L115.767 131.346ZM115.081 127.257C114.756 126.853 114.166 126.79 113.762 127.114C113.359 127.439 113.295 128.03 113.62 128.433L115.081 127.257ZM108.598 123.251C108.992 123.587 109.584 123.54 109.92 123.146C110.256 122.752 110.209 122.16 109.815 121.824L108.598 123.251ZM106.813 119.507C106.388 119.211 105.803 119.315 105.507 119.74C105.211 120.165 105.315 120.75 105.74 121.046L106.813 119.507ZM99.4505 117.497C99.9229 117.71 100.478 117.499 100.69 117.026C100.903 116.554 100.692 115.999 100.219 115.787L99.4505 117.497ZM96.7106 114.385C96.2222 114.213 95.6866 114.469 95.5142 114.957C95.3419 115.446 95.5982 115.981 96.0866 116.154L96.7106 114.385ZM89.0884 114.247C89.5962 114.35 90.0906 114.021 90.1928 113.513C90.295 113.005 89.9662 112.511 89.4584 112.409L89.0884 114.247ZM85.7637 111.778C85.2509 111.705 84.7763 112.062 84.7036 112.575C84.6309 113.088 84.9877 113.563 85.5005 113.635L85.7637 111.778ZM78.2127 112.968C78.7301 112.992 79.169 112.592 79.193 112.074C79.217 111.557 78.8171 111.118 78.2997 111.094L78.2127 112.968ZM74.5462 110.993C74.0283 110.989 73.605 111.406 73.6009 111.924C73.5967 112.442 74.0132 112.865 74.5311 112.869L74.5462 110.993ZM67.2178 113.048C67.735 113.02 68.1316 112.578 68.1035 112.061C68.0755 111.543 67.6336 111.147 67.1164 111.175L67.2178 113.048ZM63.3731 111.427C62.8568 111.468 62.4717 111.92 62.513 112.437C62.5543 112.953 63.0064 113.338 63.5226 113.297L63.3731 111.427ZM56.2226 114.042C56.7367 113.979 57.1023 113.511 57.0392 112.997C56.9762 112.483 56.5083 112.118 55.9942 112.181L56.2226 114.042ZM52.281 112.67C51.7681 112.743 51.4108 113.217 51.483 113.73C51.5552 114.243 52.0295 114.6 52.5423 114.528L52.281 112.67ZM45.2628 115.666C45.7733 115.579 46.1164 115.094 46.0291 114.584C45.9417 114.073 45.4571 113.73 44.9466 113.818L45.2628 115.666ZM41.3105 114.463C40.8011 114.557 40.4641 115.046 40.5577 115.555C40.6514 116.065 41.1403 116.402 41.6497 116.308L41.3105 114.463ZM34.3987 117.724C34.906 117.62 35.2325 117.124 35.128 116.617C35.0235 116.109 34.5275 115.783 34.0202 115.887L34.3987 117.724ZM30.1635 117.05C29.6794 117.234 29.4362 117.776 29.6204 118.26C29.8045 118.744 30.3462 118.987 30.8303 118.803L30.1635 117.05ZM23.0581 121.261C23.5613 121.138 23.8696 120.631 23.7468 120.127C23.6239 119.624 23.1165 119.316 22.6133 119.439L23.0581 121.261ZM18.7669 120.204C18.2547 120.28 17.9016 120.758 17.9782 121.27C18.0548 121.782 18.5322 122.135 19.0444 122.059L18.7669 120.204ZM10.7501 122.156C11.2612 122.241 11.7437 121.895 11.828 121.384C11.9122 120.872 11.5662 120.39 11.0551 120.306L10.7501 122.156ZM7.48313 119.222C7.0162 118.998 6.45599 119.195 6.23188 119.662C6.00776 120.129 6.20461 120.689 6.67154 120.913L7.48313 119.222ZM1.08958 114.436C1.23419 114.933 1.75459 115.219 2.25193 115.075C2.74927 114.93 3.03521 114.41 2.8906 113.912L1.08958 114.436ZM2.46452 110.229C2.47103 109.711 2.05647 109.286 1.53857 109.279C1.02068 109.273 0.595566 109.687 0.589057 110.205L2.46452 110.229ZM2.49736 102.135C2.27522 102.603 2.47444 103.162 2.94232 103.384C3.4102 103.606 3.96957 103.407 4.1917 102.939L2.49736 102.135ZM6.1391 99.6832C6.44458 99.2649 6.35317 98.6782 5.93491 98.3727C5.51666 98.0672 4.92995 98.1587 4.62447 98.5769L6.1391 99.6832ZM10.4705 92.8116C10.0521 93.1168 9.96031 93.7035 10.2655 94.1219C10.5708 94.5404 11.1574 94.6322 11.5758 94.3269L10.4705 92.8116ZM14.8346 92.2596C15.2883 92.0099 15.4536 91.4396 15.2038 90.9858C14.954 90.5321 14.3837 90.3668 13.93 90.6166L14.8346 92.2596ZM21.4415 87.4978C20.9455 87.6469 20.6642 88.1698 20.8133 88.6658C20.9623 89.1618 21.4853 89.4431 21.9813 89.2941L21.4415 87.4978ZM25.7574 88.3437C26.2647 88.2394 26.5914 87.7435 26.487 87.2362C26.3827 86.7289 25.8869 86.4022 25.3796 86.5065L25.7574 88.3437ZM33.4011 85.507C32.8838 85.533 32.4855 85.9733 32.5114 86.4906C32.5373 87.0079 32.9777 87.4062 33.4949 87.3803L33.4011 85.507ZM37.4099 87.316C37.9278 87.3243 38.3544 86.9113 38.3627 86.3934C38.3711 85.8756 37.9581 85.449 37.4402 85.4406L37.4099 87.316ZM45.4736 86.0506C44.9602 85.9823 44.4887 86.3432 44.4204 86.8566C44.3522 87.37 44.7131 87.8416 45.2265 87.9098L45.4736 86.0506ZM49.1612 88.2531C49.679 88.266 50.1092 87.8566 50.122 87.3389C50.1349 86.8211 49.7256 86.3909 49.2078 86.3781L49.1612 88.2531ZM56.6419 86.5628C56.1241 86.5499 55.6939 86.9592 55.6811 87.477C55.6682 87.9948 56.0775 88.4249 56.5953 88.4378L56.6419 86.5628ZM60.3123 88.5301C60.8301 88.543 61.2603 88.1337 61.2731 87.6159C61.286 87.0981 60.8767 86.668 60.3589 86.6551L60.3123 88.5301ZM67.793 86.8398C67.2752 86.8269 66.845 87.2363 66.8322 87.754C66.8193 88.2718 67.2286 88.702 67.7464 88.7148L67.793 86.8398ZM71.4634 88.8072C71.9812 88.82 72.4114 88.4107 72.4242 87.893C72.4371 87.3752 72.0278 86.945 71.51 86.9322L71.4634 88.8072ZM78.9441 87.1169C78.4263 87.104 77.9961 87.5133 77.9833 88.0311C77.9704 88.5489 78.3797 88.979 78.8975 88.9919L78.9441 87.1169ZM82.6145 89.0842C83.1323 89.0971 83.5625 88.6878 83.5753 88.17C83.5882 87.6522 83.1789 87.2221 82.6611 87.2092L82.6145 89.0842ZM90.0952 87.3939C89.5774 87.381 89.1472 87.7903 89.1344 88.3081C89.1215 88.8259 89.5308 89.2561 90.0486 89.2689L90.0952 87.3939ZM93.7656 89.3613C94.2834 89.3741 94.7136 88.9648 94.7264 88.4471C94.7393 87.9293 94.33 87.4991 93.8122 87.4862L93.7656 89.3613ZM101.246 87.6709C100.729 87.6581 100.298 88.0674 100.285 88.5852C100.273 89.1029 100.682 89.5331 101.2 89.546L101.246 87.6709ZM104.917 89.6383C105.434 89.6512 105.865 89.2419 105.878 88.7241C105.89 88.2063 105.481 87.7762 104.963 87.7633L104.917 89.6383ZM112.397 87.948C111.88 87.9351 111.449 88.3444 111.437 88.8622C111.424 89.38 111.833 89.8102 112.351 89.823L112.397 87.948ZM116.068 89.9154C116.586 89.9282 117.016 89.5189 117.029 89.0011C117.041 88.4834 116.632 88.0532 116.114 88.0403L116.068 89.9154ZM123.548 88.225C123.031 88.2122 122.601 88.6215 122.588 89.1393C122.575 89.657 122.984 90.0872 123.502 90.1001L123.548 88.225ZM127.219 90.1924C127.737 90.2053 128.167 89.796 128.18 89.2782C128.193 88.7604 127.783 88.3302 127.266 88.3174L127.219 90.1924ZM134.7 88.5021C134.182 88.4892 133.752 88.8985 133.739 89.4163C133.726 89.9341 134.135 90.3643 134.653 90.3771L134.7 88.5021ZM138.37 90.4695C138.888 90.4823 139.318 90.073 139.331 89.5552C139.344 89.0375 138.934 88.6073 138.417 88.5944L138.37 90.4695ZM145.851 88.7791C145.333 88.7663 144.903 89.1756 144.89 89.6934C144.877 90.2111 145.286 90.6413 145.804 90.6542L145.851 88.7791ZM149.521 90.7465C150.039 90.7594 150.469 90.3501 150.482 89.8323C150.495 89.3145 150.085 88.8843 149.568 88.8715L149.521 90.7465ZM157.002 89.0562C156.484 89.0433 156.054 89.4526 156.041 89.9704C156.028 90.4882 156.437 90.9183 156.955 90.9312L157.002 89.0562ZM160.672 91.0236C161.19 91.0364 161.62 90.6271 161.633 90.1093C161.646 89.5916 161.237 89.1614 160.719 89.1485L160.672 91.0236ZM168.153 89.3332C167.635 89.3204 167.205 89.7297 167.192 90.2474C167.179 90.7652 167.589 91.1954 168.106 91.2083L168.153 89.3332ZM171.823 91.3006C172.341 91.3135 172.771 90.9042 172.784 90.3864C172.797 89.8686 172.388 89.4384 171.87 89.4256L171.823 91.3006ZM179.304 89.6103C178.786 89.5974 178.356 90.0067 178.343 90.5245C178.33 91.0423 178.74 91.4724 179.257 91.4853L179.304 89.6103ZM183.151 90.628C183.611 90.3901 183.791 89.8243 183.553 89.3642C183.315 88.9041 182.749 88.7241 182.289 88.962L183.151 90.628ZM188.305 85.4932C187.871 85.7759 187.748 86.3569 188.031 86.7909C188.314 87.2248 188.895 87.3474 189.329 87.0646L188.305 85.4932ZM192.268 84.9992C192.68 84.6855 192.76 84.0971 192.446 83.6849C192.132 83.2728 191.544 83.193 191.132 83.5067L192.268 84.9992ZM196.144 78.8648C195.805 79.2569 195.849 79.8491 196.241 80.1875C196.633 80.526 197.225 80.4825 197.564 80.0904L196.144 78.8648ZM199.758 77.18C200.04 76.7459 199.917 76.165 199.483 75.8824C199.049 75.5999 198.468 75.7227 198.186 76.1567L199.758 77.18ZM201.008 70.0284C200.861 70.525 201.144 71.0469 201.641 71.1941C202.137 71.3413 202.659 71.0581 202.807 70.5615L201.008 70.0284ZM203.61 67.0104C203.693 66.4991 203.345 66.0177 202.834 65.9351C202.323 65.8525 201.841 66.2 201.759 66.7113L203.61 67.0104ZM202.144 59.8795C202.161 60.3971 202.595 60.8027 203.113 60.7854C203.63 60.7681 204.036 60.3344 204.019 59.8168L202.144 59.8795ZM203.77 56.2315C203.717 55.7163 203.256 55.3416 202.741 55.3946C202.226 55.4476 201.851 55.9082 201.904 56.4234L203.77 56.2315ZM200.828 49.5596C200.932 50.0671 201.427 50.3947 201.934 50.2913C202.442 50.1879 202.77 49.6926 202.666 49.1851L200.828 49.5596ZM201.894 45.7178C201.772 45.2143 201.266 44.9044 200.762 45.0256C200.259 45.1468 199.949 45.6533 200.07 46.1569L201.894 45.7178ZM198.246 39.4147C198.394 39.9113 198.916 40.1943 199.412 40.0468C199.909 39.8994 200.192 39.3774 200.044 38.8809L198.246 39.4147ZM199.003 35.4978C198.845 35.0043 198.318 34.7316 197.825 34.8887C197.331 35.0459 197.058 35.5733 197.215 36.0669L199.003 35.4978ZM194.981 29.418C195.153 29.9065 195.688 30.1632 196.177 29.9912C196.665 29.8192 196.922 29.2838 196.75 28.7952L194.981 29.418ZM135.939 220.297C135.6 220.076 135.259 219.792 134.92 219.449L133.585 220.766C134.001 221.188 134.445 221.562 134.913 221.868L135.939 220.297ZM131.987 214.566C131.638 213.659 131.349 212.714 131.133 211.77L129.304 212.188C129.54 213.22 129.856 214.25 130.237 215.24L131.987 214.566ZM130.883 206.105C130.982 205.638 131.118 205.221 131.289 204.859L129.591 204.061C129.35 204.574 129.172 205.132 129.048 205.715L130.883 206.105ZM131.378 204.457C131.376 203.823 131.372 203.193 131.368 202.566L129.492 202.58C129.497 203.204 129.5 203.831 129.502 204.463L131.378 204.457ZM131.252 195.153C131.221 193.896 131.184 192.656 131.141 191.431L129.267 191.496C129.309 192.714 129.346 193.949 129.377 195.199L131.252 195.153ZM130.8 184.016C130.727 182.764 130.648 181.53 130.561 180.313L128.69 180.447C128.776 181.655 128.855 182.881 128.928 184.125L130.8 184.016ZM129.916 172.901C129.788 171.659 129.651 170.439 129.504 169.239L127.642 169.466C127.787 170.654 127.923 171.863 128.051 173.094L129.916 172.901ZM128.442 161.85C128.233 160.605 128.012 159.384 127.78 158.189L125.939 158.548C126.168 159.726 126.386 160.93 126.592 162.16L128.442 161.85ZM126.125 150.904C125.804 149.682 125.467 148.491 125.113 147.33L123.319 147.876C123.666 149.013 123.996 150.181 124.311 151.38L126.125 150.904ZM122.592 140.246C122.103 139.066 121.592 137.924 121.057 136.821L119.369 137.639C119.887 138.708 120.384 139.816 120.859 140.963L122.592 140.246ZM117.321 130.296C116.606 129.237 115.859 128.224 115.081 127.257L113.62 128.433C114.365 129.358 115.08 130.328 115.767 131.346L117.321 130.296ZM109.815 121.824C108.851 121.002 107.851 120.23 106.813 119.507L105.74 121.046C106.728 121.734 107.681 122.469 108.598 123.251L109.815 121.824ZM100.219 115.787C99.0847 115.277 97.9153 114.81 96.7106 114.385L96.0866 116.154C97.244 116.562 98.3649 117.01 99.4505 117.497L100.219 115.787ZM89.4584 112.409C88.2563 112.167 87.0248 111.957 85.7637 111.778L85.5005 113.635C86.7276 113.809 87.9234 114.013 89.0884 114.247L89.4584 112.409ZM78.2997 111.094C77.0732 111.037 75.8221 111.004 74.5462 110.993L74.5311 112.869C75.7843 112.879 77.0113 112.912 78.2127 112.968L78.2997 111.094ZM67.1164 111.175C65.8893 111.241 64.6416 111.325 63.3731 111.427L63.5226 113.297C64.776 113.196 66.0076 113.113 67.2178 113.048L67.1164 111.175ZM55.9942 112.181C54.7742 112.33 53.5365 112.494 52.281 112.67L52.5423 114.528C53.7873 114.352 55.014 114.191 56.2226 114.042L55.9942 112.181ZM44.9466 113.818C43.7495 114.022 42.5375 114.238 41.3105 114.463L41.6497 116.308C42.8694 116.084 44.0737 115.87 45.2628 115.666L44.9466 113.818ZM34.0202 115.887C33.4076 116.014 32.7915 116.142 32.1719 116.273L32.5591 118.108C33.1759 117.978 33.7891 117.85 34.3987 117.724L34.0202 115.887ZM32.0117 116.322C31.3848 116.577 30.7687 116.82 30.1635 117.05L30.8303 118.803C31.4496 118.568 32.0793 118.32 32.7194 118.059L32.0117 116.322ZM22.6133 119.439C21.2564 119.77 19.9749 120.023 18.7669 120.204L19.0444 122.059C20.3133 121.869 21.6508 121.604 23.0581 121.261L22.6133 119.439ZM11.0551 120.306C9.68057 120.079 8.49447 119.707 7.48313 119.222L6.67154 120.913C7.86219 121.484 9.22192 121.904 10.7501 122.156L11.0551 120.306ZM2.8906 113.912C2.72397 113.339 2.60924 112.737 2.54658 112.11L0.680271 112.297C0.753639 113.031 0.889016 113.746 1.08958 114.436L2.8906 113.912ZM2.54659 112.11C2.4838 111.482 2.45666 110.854 2.46452 110.229L0.589057 110.205C0.580315 110.901 0.610511 111.599 0.68027 112.297L2.54659 112.11ZM4.1917 102.939C4.72173 101.823 5.37179 100.734 6.1391 99.6832L4.62447 98.5769C3.79054 99.7187 3.07957 100.909 2.49736 102.135L4.1917 102.939ZM11.5758 94.3269C12.583 93.5923 13.6699 92.9008 14.8346 92.2596L13.93 90.6166C12.6982 91.2947 11.544 92.0286 10.4705 92.8116L11.5758 94.3269ZM21.9813 89.2941C23.1889 88.9312 24.4481 88.613 25.7574 88.3437L25.3796 86.5065C24.0171 86.7867 22.7038 87.1185 21.4415 87.4978L21.9813 89.2941ZM33.4949 87.3803C34.7657 87.3167 36.071 87.2944 37.4099 87.316L37.4402 85.4406C36.0608 85.4183 34.7141 85.4413 33.4011 85.507L33.4949 87.3803ZM45.2265 87.9098C45.8709 87.9955 46.5214 88.0906 47.1781 88.1955L47.4739 86.3433C46.8012 86.2359 46.1344 86.1384 45.4736 86.0506L45.2265 87.9098ZM47.3027 88.2069L49.1612 88.2531L49.2078 86.3781L47.3493 86.3319L47.3027 88.2069ZM56.5953 88.4378L60.3123 88.5301L60.3589 86.6551L56.6419 86.5628L56.5953 88.4378ZM67.7464 88.7148L71.4634 88.8072L71.51 86.9322L67.793 86.8398L67.7464 88.7148ZM78.8975 88.9919L82.6145 89.0842L82.6611 87.2092L78.9441 87.1169L78.8975 88.9919ZM90.0486 89.2689L93.7656 89.3613L93.8122 87.4862L90.0952 87.3939L90.0486 89.2689ZM101.2 89.546L104.917 89.6383L104.963 87.7633L101.246 87.6709L101.2 89.546ZM112.351 89.823L116.068 89.9154L116.114 88.0403L112.397 87.948L112.351 89.823ZM123.502 90.1001L127.219 90.1924L127.266 88.3174L123.548 88.225L123.502 90.1001ZM134.653 90.3771L138.37 90.4695L138.417 88.5944L134.7 88.5021L134.653 90.3771ZM145.804 90.6542L149.521 90.7465L149.568 88.8715L145.851 88.7791L145.804 90.6542ZM156.955 90.9312L160.672 91.0236L160.719 89.1485L157.002 89.0562L156.955 90.9312ZM168.106 91.2083L171.823 91.3006L171.87 89.4256L168.153 89.3332L168.106 91.2083ZM179.257 91.4853L181.116 91.5315L181.162 89.6564L179.304 89.6103L179.257 91.4853ZM181.555 91.4346C182.097 91.1668 182.629 90.898 183.151 90.628L182.289 88.962C181.778 89.2265 181.256 89.4902 180.724 89.7533L181.555 91.4346ZM189.329 87.0646C190.362 86.391 191.342 85.7038 192.268 84.9992L191.132 83.5067C190.246 84.1811 189.304 84.8422 188.305 85.4932L189.329 87.0646ZM197.564 80.0904C198.37 79.1566 199.101 78.1884 199.758 77.18L198.186 76.1567C197.577 77.091 196.897 77.9919 196.144 78.8648L197.564 80.0904ZM202.807 70.5615C203.144 69.4225 203.412 68.2402 203.61 67.0104L201.759 66.7113C201.572 67.866 201.322 68.9699 201.008 70.0284L202.807 70.5615ZM204.019 59.8168C203.98 58.6597 203.897 57.4654 203.77 56.2315L201.904 56.4234C202.027 57.6178 202.107 58.7689 202.144 59.8795L204.019 59.8168ZM202.666 49.1851C202.437 48.0595 202.179 46.9042 201.894 45.7178L200.07 46.1569C200.351 47.3235 200.604 48.4572 200.828 49.5596L202.666 49.1851ZM200.044 38.8809C199.717 37.7778 199.37 36.6504 199.003 35.4978L197.215 36.0669C197.579 37.2085 197.923 38.3242 198.246 39.4147L200.044 38.8809ZM196.75 28.7952C196.554 28.239 196.355 27.6776 196.151 27.1107L194.386 27.7443C194.588 28.3077 194.786 28.8656 194.981 29.418L196.75 28.7952Z" fill="#363636"/>
<path d="M51.9084 75.6335H174.063C176.135 75.6335 177.815 77.313 177.815 79.3848V93.9186H191.517C193.589 93.9186 195.269 95.5981 195.269 97.6698V192.824C194.814 200.843 192.429 203.188 184.464 203.629H58.962C50.7567 203.042 48.1842 200.904 48.1572 192.824V79.3848C48.1572 77.313 49.8367 75.6335 51.9084 75.6335Z" fill="white"/>
<path d="M184.464 190.331C178.917 190.265 177.762 188.534 177.815 183.681V93.9186M177.815 93.9186V79.3848C177.815 77.313 176.135 75.6335 174.063 75.6335H51.9084C49.8367 75.6335 48.1572 77.313 48.1572 79.3848V192.824C48.1842 200.904 50.7567 203.042 58.962 203.629H184.464C192.429 203.188 194.814 200.843 195.269 192.824V97.6698C195.269 95.5981 193.589 93.9186 191.517 93.9186H177.815Z" stroke="#363636" stroke-width="2"/>
<circle cx="47.3259" cy="109.71" r="15.1228" fill="white" stroke="#363636" stroke-width="3"/>
<path d="M69.7666 96.412H157.867" stroke="#363636" stroke-width="3" stroke-linecap="round"/>
<path d="M118.804 113.035H158.698" stroke="#363636" stroke-width="3" stroke-linecap="round"/>
<path d="M118.804 131.32H158.698" stroke="#363636" stroke-width="3" stroke-linecap="round"/>
<path d="M118.804 147.943H158.698" stroke="#363636" stroke-width="3" stroke-linecap="round"/>
<path d="M118.804 166.228H158.698" stroke="#363636" stroke-width="3" stroke-linecap="round"/>
<path d="M67.2734 166.228H107.168" stroke="#363636" stroke-width="3" stroke-linecap="round"/>
<path d="M118.804 182.85H158.698" stroke="#363636" stroke-width="3" stroke-linecap="round"/>
<path d="M67.2734 182.85H107.168" stroke="#363636" stroke-width="3" stroke-linecap="round"/>
<rect x="68.9355" y="111.372" width="36.5701" height="38.2323" fill="#FB7800" fill-opacity="0.84"/>
<path d="M7.43164 66.4911V78.127" stroke="#363636" stroke-width="1.87561" stroke-linecap="round"/>
<path d="M13.249 72.309L1.6131 72.309" stroke="#363636" stroke-width="1.87561" stroke-linecap="round"/>
<path d="M226.02 137.138V123.84L236.824 130.489L226.02 137.138Z" fill="#363636"/>
<circle cx="164.516" cy="52.3616" r="4.15569" fill="#363636"/>
<ellipse opacity="0.05" cx="117.972" cy="247.679" rx="63.9976" ry="4.98683" fill="#363636"/>
</svg>
