<svg width="57" height="41" viewBox="0 0 57 41" fill="none" xmlns="http://www.w3.org/2000/svg">
<path d="M13.9333 41C11.5877 41 9.47654 40.5714 7.6 39.7143C5.81728 38.7619 4.40988 37.4762 3.37778 35.8571C2.34568 34.5238 1.50123 32.7143 0.844444 30.4286C0.281481 28.1429 0 25.7143 0 23.1429C0 18.3809 1.21975 13.9524 3.65926 9.85714C6.09876 5.66667 9.85185 2.38096 14.9185 0L16.1852 2.57143C13.6519 3.71429 11.3531 5.42858 9.28889 7.71429C7.31852 9.90476 6.09876 12.2381 5.62963 14.7143C4.87901 17.0952 4.78518 19.381 5.34815 21.5714C7.6 19 10.6963 17.7143 14.637 17.7143C18.1086 17.7143 20.9235 18.7619 23.0815 20.8571C25.2395 22.8571 26.3185 25.7143 26.3185 29.4286C26.3185 32.8571 25.1457 35.6667 22.8 37.8571C20.5481 39.9524 17.5926 41 13.9333 41ZM44.6148 41C42.2691 41 40.158 40.5714 38.2815 39.7143C36.4988 38.7619 35.0914 37.4762 34.0593 35.8571C33.0272 34.5238 32.1827 32.7143 31.5259 30.4286C30.963 28.1429 30.6815 25.7143 30.6815 23.1429C30.6815 18.3809 31.9012 13.9524 34.3407 9.85714C36.7802 5.66667 40.5333 2.38096 45.6 0L46.8667 2.57143C44.3333 3.71429 42.0346 5.42858 39.9704 7.71429C38 9.90476 36.7802 12.2381 36.3111 14.7143C35.5605 17.0952 35.4667 19.381 36.0296 21.5714C38.2815 19 41.3778 17.7143 45.3185 17.7143C48.7901 17.7143 51.6049 18.7619 53.763 20.8571C55.921 22.8571 57 25.7143 57 29.4286C57 32.8571 55.8272 35.6667 53.4815 37.8571C51.2296 39.9524 48.2741 41 44.6148 41Z" fill="#FB7800"/>
</svg>
