<svg width="40" height="28" viewBox="0 0 40 28" fill="none" xmlns="http://www.w3.org/2000/svg">
<path fill-rule="evenodd" clip-rule="evenodd" d="M34.3388 8.45383C34.0855 8.45168 33.8368 8.52628 33.6211 8.66911C33.4054 8.81193 33.2313 9.01722 33.1188 9.26153L30.8788 14.7969L30.0688 9.26153C30.0388 9.02247 29.9243 8.80508 29.7492 8.65463C29.5741 8.50417 29.3519 8.43225 29.1288 8.45383H26.2888L28.7188 17.6508C28.7541 17.8427 28.7541 18.0403 28.7188 18.2323C28.6455 18.6132 28.4561 18.9568 28.1807 19.2085C27.9053 19.4602 27.5597 19.6056 27.1988 19.6215H25.6288C25.2188 19.6215 24.9588 19.8908 24.8288 20.5046L24.4688 22.7877H27.2788C28.1819 22.7572 29.0606 22.4638 29.8212 21.9385C30.5819 21.4133 31.1962 20.6758 31.5988 19.8046L37.2188 8.45383H34.3388Z" fill="#323E48"/>
<path fill-rule="evenodd" clip-rule="evenodd" d="M6.7393 5.70764C7.5793 5.70764 7.9893 6.06303 7.8393 6.97841L7.5993 8.45379H9.5293L9.0993 11.0492H7.1693L6.6493 14.2799C6.4593 15.3569 7.4893 15.5507 8.0793 15.5507H8.3693L7.8993 18.4153C7.7493 18.4153 7.5993 18.4153 7.2793 18.4153C5.8193 18.4153 3.0493 17.9953 3.5893 14.6676L4.1893 11.0169H2.7793L3.2093 8.42149H4.5993L5.0493 5.70764H6.7393Z" fill="#323E48"/>
<path fill-rule="evenodd" clip-rule="evenodd" d="M22.9987 8.61536L22.5087 11.6415C22.8671 11.839 23.1572 12.1552 23.3362 12.5435C23.5153 12.9318 23.5738 13.3718 23.5033 13.7987C23.4328 14.2255 23.2368 14.6167 22.9444 14.9147C22.6519 15.2126 22.2783 15.4016 21.8787 15.4538L21.3887 18.48H21.6487C22.771 18.4791 23.8557 18.0438 24.705 17.2535C25.5542 16.4633 26.1115 15.3706 26.2751 14.1748C26.4388 12.979 26.1979 11.7597 25.5965 10.7392C24.9951 9.71869 24.0731 8.96493 22.9987 8.61536Z" fill="#00ADBB"/>
<path fill-rule="evenodd" clip-rule="evenodd" d="M20.7501 15.2061C20.3919 15.0094 20.1017 14.6941 19.9222 14.3066C19.7427 13.9192 19.6832 13.4799 19.7526 13.0534C19.822 12.6268 20.0165 12.2355 20.3076 11.9368C20.5987 11.6381 20.9711 11.4478 21.3701 11.3938L21.8701 8.36768H21.6001C20.481 8.37724 19.402 8.81742 18.5579 9.60873C17.7138 10.4 17.1603 11.4903 16.9973 12.6826C16.8343 13.875 17.0726 15.0908 17.6691 16.1105C18.2656 17.1302 19.181 17.8866 20.2501 18.2431L20.7501 15.2061Z" fill="#00ADBB"/>
<path fill-rule="evenodd" clip-rule="evenodd" d="M10.64 8.45377H12.3C13.14 8.45377 13.55 8.80916 13.4 9.72454L13.22 10.8015C13.5231 10.111 13.9912 9.51981 14.5764 9.08835C15.1615 8.65689 15.8427 8.40072 16.55 8.34608C16.6665 8.33646 16.7835 8.33646 16.9 8.34608L16.37 11.5768C16.1662 11.5306 15.9583 11.509 15.75 11.5122C15.1986 11.4942 14.6541 11.6482 14.1821 11.9559C13.7101 12.2635 13.3309 12.7116 13.09 13.2461C12.9092 13.675 12.7815 14.1275 12.71 14.5922L12.11 18.3076H9L10.64 8.45377Z" fill="#323E48"/>
</svg>
