<svg width="38" height="39" viewBox="0 0 38 39" fill="none" xmlns="http://www.w3.org/2000/svg">
<path d="M34.625 0.703125H3.375C2.6498 0.703125 1.9543 0.99121 1.44151 1.50401C0.92871 2.0168 0.640625 2.7123 0.640625 3.4375V14.916C0.640625 32.1504 15.2266 37.8691 18.1504 38.8398C18.7013 39.0274 19.2987 39.0274 19.8496 38.8398C22.7793 37.8633 37.3594 32.1504 37.3594 14.916V3.4375C37.3594 2.7123 37.0713 2.0168 36.5585 1.50401C36.0457 0.99121 35.3502 0.703125 34.625 0.703125ZM35.0156 14.9199C35.0156 30.5449 21.7656 35.7383 19.1094 36.6191C19.039 36.6464 18.961 36.6464 18.8906 36.6191C16.2344 35.7383 2.98438 30.5449 2.98438 14.9199V3.4375C2.98438 3.3339 3.02553 3.23454 3.09879 3.16129C3.17204 3.08803 3.2714 3.04688 3.375 3.04688H34.625C34.7286 3.04688 34.828 3.08803 34.9012 3.16129C34.9745 3.23454 35.0156 3.3339 35.0156 3.4375V14.9199ZM27.6406 11.9902C27.8601 12.21 27.9833 12.5078 27.9833 12.8184C27.9833 13.1289 27.8601 13.4268 27.6406 13.6465L16.7031 24.584C16.4834 24.8034 16.1855 24.9267 15.875 24.9267C15.5645 24.9267 15.2666 24.8034 15.0469 24.584L10.3594 19.8965C10.1524 19.6743 10.0397 19.3805 10.045 19.0769C10.0504 18.7733 10.1734 18.4837 10.3881 18.269C10.6028 18.0542 10.8925 17.9313 11.1961 17.9259C11.4997 17.9205 11.7935 18.0332 12.0156 18.2402L15.875 22.0918L25.9844 11.9844C26.2041 11.7649 26.502 11.6417 26.8125 11.6417C27.123 11.6417 27.4209 11.7649 27.6406 11.9844V11.9902Z" fill="#363636"/>
</svg>
