<svg width="40" height="44" viewBox="0 0 40 44" fill="none" xmlns="http://www.w3.org/2000/svg">
<path d="M34.1543 6.45117C32.3214 4.59881 30.1409 3.1265 27.7378 2.11867C25.3347 1.11084 22.7563 0.587314 20.1504 0.578125H20C14.7164 0.578125 9.64918 2.67703 5.91311 6.41311C2.17703 10.1492 0.078125 15.2164 0.078125 20.5V31.4375C0.078125 32.5771 0.53083 33.67 1.33665 34.4758C2.14247 35.2817 3.2354 35.7344 4.375 35.7344H7.5C8.6396 35.7344 9.73253 35.2817 10.5383 34.4758C11.3442 33.67 11.7969 32.5771 11.7969 31.4375V23.625C11.7969 22.4854 11.3442 21.3925 10.5383 20.5867C9.73253 19.7808 8.6396 19.3281 7.5 19.3281H2.46094C2.75821 14.8789 4.73531 10.7089 7.99183 7.66274C11.2483 4.61656 15.5408 2.92186 20 2.92188H20.1328C24.5733 2.94158 28.8407 4.64655 32.0722 7.69211C35.3038 10.7377 37.2584 14.8966 37.541 19.3281H32.5C31.3604 19.3281 30.2675 19.7808 29.4616 20.5867C28.6558 21.3925 28.2031 22.4854 28.2031 23.625V31.4375C28.2031 32.5771 28.6558 33.67 29.4616 34.4758C30.2675 35.2817 31.3604 35.7344 32.5 35.7344H37.5781V36.125C37.5781 37.4718 37.0431 38.7634 36.0908 39.7158C35.1384 40.6681 33.8468 41.2031 32.5 41.2031H21.5625C21.2517 41.2031 20.9536 41.3266 20.7339 41.5464C20.5141 41.7661 20.3906 42.0642 20.3906 42.375C20.3906 42.6858 20.5141 42.9839 20.7339 43.2036C20.9536 43.4234 21.2517 43.5469 21.5625 43.5469H32.5C34.4684 43.5469 36.3562 42.7649 37.7481 41.3731C39.1399 39.9812 39.9219 38.0934 39.9219 36.125V20.5C39.9317 17.894 39.4273 15.3118 38.4376 12.901C37.4479 10.4903 35.9924 8.29851 34.1543 6.45117ZM7.5 21.6719C8.018 21.6719 8.51479 21.8776 8.88107 22.2439C9.24735 22.6102 9.45312 23.107 9.45312 23.625V31.4375C9.45312 31.9555 9.24735 32.4523 8.88107 32.8186C8.51479 33.1849 8.018 33.3906 7.5 33.3906H4.375C3.857 33.3906 3.36021 33.1849 2.99393 32.8186C2.62765 32.4523 2.42187 31.9555 2.42187 31.4375V21.6719H7.5ZM30.5469 31.4375V23.625C30.5469 23.107 30.7526 22.6102 31.1189 22.2439C31.4852 21.8776 31.982 21.6719 32.5 21.6719H37.5781V33.3906H32.5C31.982 33.3906 31.4852 33.1849 31.1189 32.8186C30.7526 32.4523 30.5469 31.9555 30.5469 31.4375Z" fill="#363636"/>
</svg>
