<svg width="50" height="51" viewBox="0 0 50 51" fill="none" xmlns="http://www.w3.org/2000/svg">
<path d="M47.9629 23.5039L45.2285 16.668C45.0271 16.1595 44.6771 15.7235 44.2242 15.4169C43.7712 15.1103 43.2364 14.9473 42.6895 14.9492H35.5469V13C35.5469 12.6892 35.4234 12.3911 35.2036 12.1714C34.9839 11.9516 34.6858 11.8281 34.375 11.8281H4.6875C3.9623 11.8281 3.2668 12.1162 2.754 12.629C2.24121 13.1418 1.95313 13.8373 1.95312 14.5625V36.4375C1.95312 37.1627 2.24121 37.8582 2.754 38.371C3.2668 38.8838 3.9623 39.1719 4.6875 39.1719H8.32031C8.58927 40.4964 9.30789 41.6873 10.3544 42.5426C11.4009 43.398 12.7109 43.8652 14.0625 43.8652C15.4141 43.8652 16.7241 43.398 17.7706 42.5426C18.8171 41.6873 19.5357 40.4964 19.8047 39.1719H30.1953C30.4643 40.4964 31.1829 41.6873 32.2294 42.5426C33.2759 43.398 34.5859 43.8652 35.9375 43.8652C37.2891 43.8652 38.5991 43.398 39.6456 42.5426C40.6921 41.6873 41.4107 40.4964 41.6797 39.1719H45.3125C46.0377 39.1719 46.7332 38.8838 47.246 38.371C47.7588 37.8582 48.0469 37.1627 48.0469 36.4375V23.9375C48.0466 23.789 48.0181 23.6418 47.9629 23.5039ZM35.5469 17.2969H42.6914C42.7696 17.2968 42.8461 17.3202 42.9109 17.3641C42.9756 17.408 43.0257 17.4703 43.0547 17.543L45.1445 22.7656H35.5469V17.2969ZM4.29688 14.5625C4.29688 14.4589 4.33803 14.3595 4.41129 14.2863C4.48454 14.213 4.5839 14.1719 4.6875 14.1719H33.2031V27.4531H4.29688V14.5625ZM14.0625 41.5156C13.3672 41.5156 12.6875 41.3094 12.1093 40.9231C11.5312 40.5368 11.0806 39.9878 10.8145 39.3454C10.5484 38.703 10.4788 37.9961 10.6144 37.3141C10.7501 36.6322 11.0849 36.0057 11.5766 35.5141C12.0682 35.0224 12.6947 34.6876 13.3766 34.5519C14.0586 34.4163 14.7655 34.4859 15.4079 34.752C16.0503 35.0181 16.5993 35.4687 16.9856 36.0468C17.3719 36.625 17.5781 37.3047 17.5781 38C17.5781 38.9324 17.2077 39.8266 16.5484 40.4859C15.8891 41.1452 14.9949 41.5156 14.0625 41.5156ZM30.1953 36.8281H19.8047C19.5357 35.5036 18.8171 34.3127 17.7706 33.4574C16.7241 32.602 15.4141 32.1348 14.0625 32.1348C12.7109 32.1348 11.4009 32.602 10.3544 33.4574C9.30789 34.3127 8.58927 35.5036 8.32031 36.8281H4.6875C4.5839 36.8281 4.48454 36.787 4.41129 36.7137C4.33803 36.6405 4.29688 36.5411 4.29688 36.4375V29.7969H33.2031V32.8203C32.4375 33.2255 31.7708 33.7949 31.2508 34.4877C30.7309 35.1806 30.3704 35.9797 30.1953 36.8281ZM35.9375 41.5156C35.2422 41.5156 34.5625 41.3094 33.9843 40.9231C33.4062 40.5368 32.9556 39.9878 32.6895 39.3454C32.4234 38.703 32.3538 37.9961 32.4894 37.3141C32.6251 36.6322 32.9599 36.0057 33.4516 35.5141C33.9432 35.0224 34.5697 34.6876 35.2516 34.5519C35.9336 34.4163 36.6405 34.4859 37.2829 34.752C37.9253 35.0181 38.4743 35.4687 38.8606 36.0468C39.2469 36.625 39.4531 37.3047 39.4531 38C39.4531 38.9324 39.0827 39.8266 38.4234 40.4859C37.7641 41.1452 36.8699 41.5156 35.9375 41.5156ZM45.7031 36.4375C45.7031 36.5411 45.662 36.6405 45.5887 36.7137C45.5155 36.787 45.4161 36.8281 45.3125 36.8281H41.6797C41.4078 35.5055 40.6882 34.3171 39.6422 33.4632C38.5962 32.6093 37.2878 32.1422 35.9375 32.1406C35.8066 32.1406 35.6758 32.1406 35.5469 32.1543V25.1094H45.7031V36.4375Z" fill="#363636"/>
</svg>
