<svg width="40" height="39" viewBox="0 0 40 39" fill="none" xmlns="http://www.w3.org/2000/svg">
<path d="M37.1875 10.9532H29.1289C29.5425 10.6935 29.9344 10.4009 30.3008 10.0782C30.8534 9.58583 31.2985 8.98484 31.6083 8.31273C31.9181 7.64063 32.0861 6.91185 32.1016 6.17192C32.1255 5.35796 31.9831 4.54768 31.6829 3.7907C31.3828 3.03373 30.9312 2.346 30.356 1.76965C29.7807 1.19329 29.0938 0.740446 28.3374 0.438849C27.581 0.137251 26.771 -0.00674858 25.957 0.0156702C25.2171 0.0311692 24.4883 0.199085 23.8162 0.508926C23.1441 0.818768 22.5431 1.26388 22.0508 1.81645C21.146 2.88412 20.4503 4.11253 20 5.43754C19.5506 4.11352 18.8563 2.88581 17.9531 1.8184C17.4605 1.265 16.859 0.819243 16.1861 0.509044C15.5133 0.198845 14.7837 0.0308821 14.043 0.0156702C13.2285 -0.00781972 12.4178 0.135322 11.6606 0.436315C10.9034 0.737309 10.2157 1.18981 9.63962 1.76607C9.06355 2.34232 8.61127 3.03019 8.31052 3.78747C8.00976 4.54475 7.86688 5.35549 7.89063 6.16997C7.90612 6.90989 8.07404 7.63867 8.38388 8.31078C8.69372 8.98289 9.13883 9.58388 9.69141 10.0762C10.0575 10.3994 10.4494 10.6921 10.8633 10.9512H2.8125C2.45325 10.9512 2.09753 11.022 1.76565 11.1595C1.43377 11.2971 1.13225 11.4987 0.878315 11.7528C0.624379 12.0069 0.423007 12.3086 0.285707 12.6405C0.148406 12.9725 0.0778691 13.3283 0.0781257 13.6875V19.9375C0.0781257 20.6627 0.366211 21.3582 0.879006 21.871C1.3918 22.3838 2.0873 22.6719 2.8125 22.6719H3.20313V35.5625C3.20313 36.2877 3.49121 36.9832 4.00401 37.496C4.5168 38.0088 5.2123 38.2969 5.9375 38.2969H34.0625C34.7877 38.2969 35.4832 38.0088 35.996 37.496C36.5088 36.9832 36.7969 36.2877 36.7969 35.5625V22.6719H37.1875C37.9127 22.6719 38.6082 22.3838 39.121 21.871C39.6338 21.3582 39.9219 20.6627 39.9219 19.9375V13.6875C39.9219 12.9623 39.6338 12.2668 39.121 11.754C38.6082 11.2413 37.9127 10.9532 37.1875 10.9532ZM21.5176 8.80473C21.957 6.43754 22.7461 4.55669 23.8008 3.36528C24.083 3.05379 24.4264 2.80374 24.8094 2.6307C25.1925 2.45765 25.6071 2.36531 26.0273 2.35942H26.1348C26.6207 2.35948 27.1016 2.45701 27.5492 2.64625C27.9967 2.8355 28.4018 3.1126 28.7403 3.46116C29.0788 3.80972 29.344 4.22266 29.5201 4.67553C29.6963 5.1284 29.7797 5.612 29.7656 6.0977C29.759 6.51843 29.6657 6.93327 29.4917 7.31636C29.3176 7.69944 29.0665 8.04255 28.7539 8.32426C26.6602 10.1719 23.1094 10.7247 21.2383 10.8848C21.2871 10.3204 21.3672 9.60161 21.5176 8.80473ZM11.2988 3.42387C11.9805 2.74464 12.9029 2.36208 13.8652 2.35942H13.9727C14.3934 2.36605 14.8082 2.45931 15.1913 2.63338C15.5744 2.80744 15.9175 3.05859 16.1992 3.37114C18.0469 5.46489 18.5996 9.01567 18.7598 10.8868C18.1953 10.8379 17.4766 10.754 16.6875 10.6075C14.3203 10.1719 12.4395 9.37895 11.248 8.32231C10.935 8.04129 10.6834 7.69864 10.509 7.31583C10.3345 6.93303 10.2411 6.51832 10.2344 6.0977C10.2209 5.60309 10.3083 5.11091 10.4913 4.65121C10.6744 4.1915 10.9491 3.77389 11.2988 3.42387ZM2.42188 19.9375V13.6875C2.42188 13.5839 2.46303 13.4846 2.53629 13.4113C2.60954 13.3381 2.7089 13.2969 2.8125 13.2969H18.8281V20.3282H2.8125C2.7089 20.3282 2.60954 20.287 2.53629 20.2138C2.46303 20.1405 2.42188 20.0411 2.42188 19.9375ZM5.54688 35.5625V22.6719H18.8281V35.9532H5.9375C5.8339 35.9532 5.73454 35.912 5.66129 35.8388C5.58803 35.7655 5.54688 35.6661 5.54688 35.5625ZM34.4531 35.5625C34.4531 35.6661 34.412 35.7655 34.3387 35.8388C34.2655 35.912 34.1661 35.9532 34.0625 35.9532H21.1719V22.6719H34.4531V35.5625ZM37.5781 19.9375C37.5781 20.0411 37.537 20.1405 37.4637 20.2138C37.3905 20.287 37.2911 20.3282 37.1875 20.3282H21.1719V13.2969H37.1875C37.2911 13.2969 37.3905 13.3381 37.4637 13.4113C37.537 13.4846 37.5781 13.5839 37.5781 13.6875V19.9375Z" fill="#363636"/>
</svg>
